<svg width="23" height="23" viewBox="0 0 23 23" fill="none" xmlns="http://www.w3.org/2000/svg">
<path d="M22.9408 8.67122C22.7919 8.21345 22.3859 7.88935 21.9075 7.84606L15.3814 7.25358L12.8022 1.2153C12.6118 0.771673 12.1785 0.485352 11.6963 0.485352C11.214 0.485352 10.7806 0.771673 10.5913 1.2153L8.01221 7.25358L1.4851 7.84606C1.00663 7.89022 0.601469 8.21431 0.451754 8.67122C0.302901 9.12899 0.44037 9.63109 0.802239 9.94846L5.73543 14.2742L4.28088 20.6805C4.17446 21.1516 4.35729 21.6387 4.74814 21.9212C4.95822 22.0738 5.20505 22.1501 5.45273 22.1501C5.66558 22.1501 5.87859 22.0935 6.06884 21.9797L11.6963 18.6149L17.3227 21.9797C17.7354 22.2263 18.2544 22.2037 18.6444 21.9212C19.0353 21.6387 19.2181 21.1516 19.1117 20.6805L17.6571 14.2742L22.5903 9.94846C22.952 9.63109 23.0897 9.13002 22.9408 8.67122Z" fill="#222222"/>
</svg>
