<svg width="195" height="31" viewBox="0 0 195 31" fill="none" xmlns="http://www.w3.org/2000/svg">
<path d="M29.2642 15.5535C29.2215 15.5368 29.1867 15.5078 29.181 15.4562C29.1152 14.8623 28.857 14.3305 28.625 13.7941C28.0939 12.5665 27.3646 11.4607 26.4517 10.4864C25.5823 9.55862 24.6132 8.7474 23.4952 8.123C22.8191 7.74541 22.1193 7.42077 21.3891 7.1712C20.8112 6.97366 20.2187 6.82468 19.6123 6.71713C18.6186 6.54088 17.6209 6.49012 16.6193 6.53873C15.9891 6.56931 15.3681 6.69502 14.746 6.817C13.6098 7.03977 12.5642 7.48239 11.5472 8.00888C10.9063 8.34068 10.3287 8.77086 9.74946 9.19914C9.26242 9.55925 8.83704 9.98299 8.43923 10.4322C7.90073 11.0402 7.38226 11.6696 6.98991 12.3846C6.80684 12.7182 6.55704 13.0117 6.41406 13.3667C6.30764 13.631 6.17112 13.8816 6.07781 14.1522C5.97185 14.4594 5.83821 14.7572 5.73398 15.065C5.53963 15.6389 5.38696 16.2258 5.29944 16.825C5.24257 17.2144 5.16528 17.6032 5.16643 18C5.16761 18.4089 5.15979 18.8178 5.16603 19.2265C5.1774 19.9715 5.27765 20.7043 5.43575 21.4337C5.64673 22.4073 5.99259 23.3292 6.42239 24.2222C6.78308 24.9717 7.23631 25.6666 7.74318 26.3235C8.22685 26.9504 8.76943 27.5284 9.38133 28.031C9.69372 28.2876 9.99424 28.5608 10.3353 28.7856C10.6516 28.994 10.9532 29.2284 11.2895 29.402C11.6483 29.5874 11.9913 29.8054 12.3707 29.9504C12.4989 29.9994 12.6087 30.0883 12.7456 30.1199C12.7853 30.129 12.8516 30.1368 12.8317 30.2027C12.814 30.2613 12.7511 30.2568 12.71 30.2394C12.5065 30.1534 12.2847 30.157 12.0743 30.1024C11.6136 29.9829 11.1535 29.8616 10.7028 29.7085C10.3603 29.5922 10.0262 29.4521 9.68674 29.3269C9.33677 29.1979 9.01679 28.9944 8.68352 28.8243C8.09411 28.5233 7.54307 28.1656 7.0094 27.7786C6.09679 27.1167 5.27693 26.3563 4.54576 25.4959C4.02522 24.8834 3.56083 24.2324 3.15124 23.5444C2.76093 22.8888 2.42808 22.2022 2.14593 21.491C1.80239 20.625 1.55512 19.7304 1.40362 18.8155C1.30178 18.2006 1.23907 17.5771 1.20081 16.9504C1.16897 16.4288 1.20069 15.9131 1.22428 15.3978C1.2509 14.8165 1.34805 14.2395 1.46462 13.6661C1.58986 13.0501 1.73115 12.4363 1.94153 11.8478C2.22077 11.0669 2.54985 10.3035 2.96146 9.57739C3.39209 8.8177 3.87769 8.09636 4.42963 7.42285C4.95488 6.7819 5.5478 6.20243 6.17717 5.66259C6.57928 5.31769 7.00824 5.0077 7.44641 4.70978C8.05615 4.29521 8.69699 3.93414 9.36396 3.62391C9.94697 3.35273 10.5503 3.13241 11.171 2.95365C11.6201 2.82432 12.0765 2.72827 12.5248 2.60138C12.784 2.52801 13.0481 2.51109 13.3089 2.47937C13.9925 2.39624 14.6786 2.30978 15.3688 2.32884C15.802 2.3408 16.2335 2.40806 16.6668 2.42621C17.176 2.44756 17.6724 2.54299 18.1689 2.64243C18.6554 2.73985 19.131 2.87909 19.6071 3.01786C19.9679 3.12303 20.3104 3.27108 20.6555 3.41468C22.0562 3.99766 23.3314 4.78352 24.4725 5.78456C25.0298 6.27352 25.5509 6.79855 26.0298 7.36525C26.6064 8.04763 27.1009 8.78728 27.5467 9.55925C27.6368 9.71518 27.7346 9.8655 27.8245 10.0178C27.9683 10.2613 28.0227 10.5555 28.1436 10.8148C28.3756 11.3125 28.5472 11.8328 28.7153 12.3519C28.8525 12.7752 28.9564 13.2123 29.0263 13.655C29.0797 13.9929 29.1683 14.3275 29.1935 14.6672C29.2153 14.9626 29.3528 15.2491 29.2642 15.5535Z" fill="#FCC626"/>
<path d="M6.69401 19.1821C7.55214 21.6364 9.20476 23.3902 11.4928 24.5157C12.7512 25.1347 14.1383 25.3658 15.5526 25.2905C17.6075 25.1809 19.4344 24.4527 20.9905 23.1195C22.4869 21.8374 23.4667 20.2155 23.8706 18.2729C24.3243 16.0907 24.0333 14.0069 22.9511 12.055C21.8587 10.0847 20.2101 8.7531 18.1002 7.9721C18.4121 7.905 18.705 7.97704 18.9946 8.02415C19.6308 8.12764 20.2599 8.26318 20.8748 8.46747C21.7478 8.75753 22.5751 9.13928 23.3467 9.63786C24.1924 10.1843 24.9524 10.8376 25.6325 11.5772C26.2604 12.2601 26.781 13.0252 27.1776 13.8648C27.5635 14.6819 27.8726 15.5311 28.0554 16.4178C28.1482 16.8674 28.2256 17.3217 28.2517 17.7842C28.2692 18.0943 28.338 18.4047 28.3123 18.7147C28.2663 19.2688 28.2678 19.8244 28.1861 20.3788C28.091 21.0246 27.9503 21.6551 27.7508 22.2731C27.6205 22.677 27.4481 23.0658 27.2691 23.4518C26.7549 24.56 26.0043 25.498 25.1695 26.3727C24.7413 26.8214 24.2591 27.2156 23.7635 27.5872C23.1374 28.0566 22.453 28.4332 21.7311 28.7352C21.3556 28.8923 20.9721 29.029 20.5825 29.1523C20.3307 29.232 20.0734 29.296 19.82 29.3342C19.4439 29.3909 19.0823 29.5089 18.6971 29.5358C17.9946 29.5848 17.2963 29.5812 16.5949 29.5357C15.0659 29.4366 13.6476 28.9768 12.3123 28.242C11.2815 27.6749 10.3667 26.9597 9.5634 26.0978C8.71174 25.1839 8.0412 24.1532 7.54665 23.0098C7.31124 22.4655 7.08742 21.9115 6.95596 21.3325C6.82438 20.753 6.72023 20.1651 6.68228 19.57C6.67445 19.4472 6.70302 19.3209 6.69401 19.1821Z" fill="#557DE4"/>
<path d="M5.59173 2.79741C5.62872 4.47114 4.252 5.60576 2.85021 5.62432C1.26184 5.64535 0.10598 4.3793 0.00764022 3.01311C-0.123678 1.18875 1.46172 -0.0700049 2.92087 0.00301899C4.36974 0.075528 5.63461 1.25749 5.59173 2.79741Z" fill="#FCC626"/>
<path d="M17.0436 20.1382C17.0765 19.0264 17.9105 18.1689 18.9656 18.111C20.2271 18.0416 21.162 18.9996 21.1469 20.1625C21.1317 21.3311 20.2856 22.204 19.0877 22.2132C18.0625 22.221 17.0976 21.4575 17.0436 20.1382Z" fill="#557DE4"/>
<path d="M159.148 9.72275C159.148 7.70923 159.151 5.6957 159.143 3.68221C159.142 3.45691 159.209 3.38577 159.431 3.3864C161.544 3.39241 163.659 3.34647 165.771 3.40903C166.843 3.44076 167.85 3.78447 168.647 4.59204C169.914 5.8764 169.697 8.35555 168.211 9.3804C168.001 9.52569 168.006 9.65675 168.227 9.77357C169.288 10.3341 170.006 11.8105 169.864 13.0298C169.653 14.8378 168.383 15.7347 166.725 16.054C165.989 16.1955 165.251 16.1754 164.511 16.176C162.888 16.1773 161.266 16.1765 159.643 16.1763C159.157 16.1763 159.155 16.1759 159.155 15.7033C159.155 13.7098 159.155 11.7163 159.155 9.72277C159.153 9.72277 159.15 9.72275 159.148 9.72275ZM163.769 10.522C162.959 10.522 162.319 10.5326 161.678 10.517C161.412 10.5105 161.334 10.6056 161.338 10.8648C161.351 11.8755 161.345 12.8865 161.349 13.8974C161.35 14.2782 161.391 14.3263 161.784 14.33C162.805 14.3395 163.826 14.3362 164.847 14.3427C165.298 14.3456 165.742 14.317 166.189 14.2309C167.111 14.0528 167.68 13.4093 167.692 12.4828C167.705 11.5096 167.162 10.8404 166.233 10.6321C165.359 10.4362 164.477 10.5556 163.769 10.522ZM163.588 8.68173C164.159 8.68173 164.731 8.67322 165.302 8.68473C165.681 8.69238 166.035 8.5991 166.385 8.47426C166.949 8.27361 167.29 7.88875 167.331 7.28211C167.38 6.56452 167.255 5.91454 166.543 5.53786C166.116 5.31245 165.649 5.23379 165.178 5.2287C164.005 5.21605 162.833 5.23176 161.66 5.22635C161.436 5.22532 161.336 5.28509 161.338 5.53077C161.348 6.48266 161.345 7.43476 161.336 8.38669C161.334 8.60745 161.412 8.68826 161.634 8.68496C162.285 8.67529 162.937 8.68153 163.588 8.68173Z" fill="black"/>
<path d="M50.1746 9.7403C50.1746 7.71676 50.1775 5.6932 50.1703 3.66969C50.1696 3.46098 50.2295 3.38639 50.4403 3.38693C52.5741 3.39239 54.7093 3.34461 56.8409 3.41163C57.8776 3.44422 58.8606 3.78181 59.6398 4.5588C60.9537 5.86909 60.7378 8.36134 59.2034 9.40428C59.0114 9.53478 59.023 9.65539 59.2382 9.76608C60.2987 10.3115 61.0314 11.7926 60.8934 13.0123C60.6878 14.8292 59.4193 15.7364 57.7396 16.0557C56.9934 16.1975 56.2454 16.1744 55.4958 16.1756C53.863 16.1782 52.2301 16.1768 50.5972 16.1761C50.1882 16.1759 50.1828 16.1707 50.1827 15.7509C50.1819 13.7473 50.1823 11.7438 50.1823 9.7403C50.1798 9.7403 50.1772 9.7403 50.1746 9.7403ZM54.7908 10.5218C53.9946 10.5218 53.3636 10.5352 52.7336 10.5159C52.4377 10.5069 52.3594 10.6144 52.3639 10.8968C52.3799 11.8975 52.3721 12.8985 52.376 13.8994C52.3775 14.278 52.4189 14.3248 52.8135 14.3302C53.504 14.3396 54.1948 14.3468 54.8852 14.3363C55.6632 14.3244 56.4416 14.392 57.2181 14.2321C58.1365 14.043 58.7074 13.408 58.7191 12.4808C58.7315 11.508 58.1883 10.84 57.2578 10.6318C56.3841 10.4364 55.5025 10.5555 54.7908 10.5218ZM54.6137 8.6813C55.245 8.6813 55.8781 8.71087 56.5071 8.67281C57.1132 8.63615 57.7198 8.5065 58.1092 7.97958C58.7375 7.12943 58.2962 5.76087 57.2971 5.41661C56.9754 5.3058 56.638 5.23114 56.2966 5.22923C55.0841 5.22246 53.8715 5.23254 52.659 5.22655C52.4332 5.22543 52.3648 5.31262 52.3664 5.52923C52.3732 6.48117 52.3721 7.43323 52.3636 8.38517C52.3616 8.6044 52.4361 8.68833 52.6596 8.68497C53.3108 8.67515 53.9623 8.68149 54.6137 8.6813Z" fill="black"/>
<path d="M85.6685 12.3911C85.7619 12.2219 85.7319 12.0792 85.7272 11.9433C85.6341 9.23943 85.6613 6.53456 85.6585 3.82996C85.658 3.39042 85.6594 3.38997 86.108 3.3895C86.5789 3.389 87.0503 3.40185 87.5206 3.38471C87.7849 3.37508 87.8671 3.46717 87.865 3.72969C87.8544 5.05224 87.8603 6.37492 87.8603 7.69755C87.8603 10.3729 87.8604 13.0482 87.8601 15.7235C87.8601 16.0245 87.7143 16.1753 87.4227 16.1761C87.0018 16.1767 86.5809 16.1706 86.1602 16.1786C85.9831 16.1819 85.8663 16.1199 85.7573 15.9762C83.6562 13.2067 81.55 10.4412 79.4448 7.67482C79.4387 7.66685 79.4332 7.65808 79.4257 7.65162C79.3118 7.55292 79.277 7.28858 79.1166 7.35087C78.9879 7.40088 79.0683 7.64236 79.0682 7.7978C79.0656 10.4631 79.0638 13.1284 79.0714 15.7937C79.0722 16.0733 78.9922 16.1932 78.6956 16.1812C78.2254 16.1621 77.7539 16.1773 77.283 16.1759C76.8945 16.1747 76.8848 16.1658 76.8847 15.7644C76.8839 12.6883 76.8846 9.61219 76.8837 6.53608C76.8834 5.58419 76.8864 4.6322 76.8716 3.6805C76.868 3.45215 76.9404 3.38017 77.1616 3.38612C77.6022 3.39798 78.0437 3.40092 78.484 3.38499C78.732 3.37602 78.8952 3.46941 79.0406 3.66325C80.6992 5.87551 82.3614 8.0851 84.0263 10.2926C84.533 10.9643 85.0511 11.6275 85.5648 12.2939C85.5878 12.3237 85.6201 12.3462 85.6685 12.3911Z" fill="black"/>
<path d="M150.656 16.4319C148.766 16.4066 147.274 16.026 146 15.0071C144.615 13.899 143.918 12.4092 143.769 10.6705C143.676 9.57964 143.731 8.48766 144.13 7.44151C144.991 5.18604 146.652 3.93074 148.998 3.50902C149.595 3.40178 150.193 3.35487 150.792 3.39408C153.693 3.584 156.437 5.34139 156.842 9.00751C156.967 10.1396 156.883 11.2444 156.503 12.3229C155.793 14.3333 154.361 15.5647 152.349 16.1535C151.708 16.341 151.047 16.4549 150.656 16.4319ZM154.721 9.79754C154.728 9.55321 154.699 9.20313 154.636 8.85808C154.358 7.32975 153.556 6.18708 152.092 5.60649C151.304 5.29365 150.486 5.18401 149.604 5.32686C148.297 5.53839 147.283 6.12039 146.593 7.23801C145.914 8.33571 145.788 9.541 145.951 10.8004C146.274 13.3096 148.608 14.7632 150.842 14.5119C151.981 14.3839 152.961 13.944 153.705 13.0411C154.457 12.1284 154.714 11.0579 154.721 9.79754Z" fill="black"/>
<path d="M128.703 8.92242C129.525 8.92242 130.347 8.92971 131.168 8.91816C131.427 8.91452 131.522 9.00295 131.52 9.26489C131.51 10.8882 131.511 12.5115 131.511 14.1348C131.511 14.3184 131.452 14.4633 131.314 14.5842C130.254 15.511 129.034 16.0802 127.639 16.3059C127.079 16.3964 126.524 16.4382 125.966 16.4123C124.622 16.3498 123.35 16.0306 122.235 15.2415C120.872 14.277 120.068 12.9425 119.8 11.3121C119.474 9.32972 119.739 7.45402 121.026 5.82299C121.986 4.60685 123.264 3.88757 124.755 3.56096C126.418 3.19651 128.037 3.37287 129.58 4.12107C130.107 4.37659 130.556 4.74845 131.022 5.09493C131.142 5.18432 131.151 5.27543 131.035 5.39126C130.68 5.74476 130.333 6.10525 129.987 6.46761C129.861 6.59993 129.753 6.62567 129.607 6.4877C128.882 5.80258 128.005 5.49129 127.027 5.32096C126.08 5.15608 125.203 5.32801 124.369 5.68478C122.904 6.31175 122.117 7.49655 121.891 9.05562C121.765 9.92619 121.797 10.7913 122.073 11.6396C122.626 13.3433 123.839 14.1942 125.568 14.4713C126.827 14.6729 127.96 14.4067 129.05 13.8069C129.382 13.6247 129.541 13.3998 129.517 12.9974C129.479 12.3583 129.498 11.7153 129.506 11.0742C129.509 10.8412 129.423 10.7557 129.188 10.758C128.196 10.7675 127.204 10.7557 126.212 10.7716C125.974 10.7754 125.89 10.7143 125.899 10.473C125.914 10.0728 125.92 9.67066 125.898 9.27101C125.882 8.98061 126.005 8.91404 126.268 8.91794C127.08 8.92997 127.891 8.92233 128.703 8.92242Z" fill="black"/>
<path d="M183.374 16.1764C183.114 16.1764 182.851 16.158 182.593 16.1813C182.301 16.2076 182.162 16.0752 182.055 15.8194C181.773 15.145 181.461 14.4833 181.176 13.8102C181.089 13.6067 180.977 13.5249 180.75 13.5257C178.666 13.5337 176.582 13.5334 174.497 13.5261C174.274 13.5253 174.15 13.5979 174.062 13.8036C173.761 14.5135 173.442 15.2159 173.139 15.9249C173.074 16.0776 173.002 16.1794 172.816 16.1777C172.195 16.1719 171.574 16.1755 170.953 16.1758C170.793 16.1759 170.702 16.1532 170.795 15.9509C171.471 14.476 172.141 12.9984 172.807 11.5189C173.917 9.05257 175.05 6.59564 176.11 4.10807C176.361 3.52072 176.655 3.31223 177.258 3.3803C177.684 3.42829 178.119 3.39559 178.55 3.38719C178.743 3.38341 178.849 3.44461 178.935 3.63562C180.328 6.76541 181.73 9.8911 183.132 13.0171C183.571 13.9951 184.009 14.9731 184.457 15.9467C184.545 16.1374 184.479 16.1772 184.306 16.176C183.995 16.1739 183.685 16.1754 183.374 16.1754L183.374 16.1764ZM177.653 5.76333C177.564 5.78832 177.548 5.83481 177.528 5.88066C176.738 7.69675 175.946 9.51224 175.157 11.3287C175.019 11.6452 175.05 11.6924 175.4 11.6929C176.801 11.6948 178.202 11.6926 179.603 11.6941C180.221 11.6948 180.235 11.6786 179.989 11.1095C179.381 9.70483 178.771 8.30133 178.159 6.89816C177.993 6.51705 177.821 6.13876 177.653 5.76333Z" fill="black"/>
<path d="M65.1791 7.62321C65.1791 8.88581 65.1413 10.1499 65.1897 11.4106C65.2382 12.675 65.8118 13.6868 66.9882 14.2191C69.0132 15.1354 71.4399 14.1787 71.7803 11.6789C71.8183 11.3995 71.8328 11.1212 71.8325 10.8405C71.8296 8.45552 71.8303 6.07058 71.8205 3.68567C71.8196 3.46446 71.8784 3.38125 72.105 3.38619C72.6358 3.39777 73.1672 3.39634 73.6981 3.38688C73.9236 3.38287 74.0261 3.45616 74.0253 3.69566C74.017 6.08056 74.0306 8.46567 74.0033 10.8503C73.9936 11.7016 73.8715 12.548 73.5309 13.3451C72.9549 14.6927 71.9768 15.6179 70.59 16.0846C69.2195 16.5459 67.8274 16.5625 66.4592 16.0948C64.5069 15.4276 63.4368 14.009 63.1104 11.9978C63.0333 11.5225 62.9983 11.0442 62.999 10.5622C63.0023 8.4178 63.0006 6.27336 63.0035 4.12892C63.0046 3.38948 63.0083 3.38949 63.7278 3.38951C64.0184 3.38952 64.309 3.38946 64.5996 3.3895C64.9861 3.38955 65.1793 3.58828 65.1791 3.98571C65.1771 5.00781 65.1737 6.02993 65.171 7.05203C65.1705 7.24243 65.1709 7.43282 65.1709 7.62321C65.1737 7.62321 65.1764 7.62321 65.1791 7.62321Z" fill="black"/>
<path d="M104.149 7.62101C104.149 8.8836 104.112 10.1476 104.16 11.4084C104.208 12.6728 104.781 13.685 105.957 14.218C107.982 15.1359 110.409 14.1793 110.75 11.6807C110.789 11.4013 110.803 11.123 110.803 10.8423C110.8 8.45734 110.801 6.0724 110.791 3.68749C110.79 3.46873 110.844 3.38083 111.073 3.38595C111.604 3.39782 112.136 3.39601 112.667 3.38675C112.89 3.38285 112.997 3.45223 112.996 3.69348C112.987 6.07839 113.001 8.46349 112.974 10.8481C112.965 11.6686 112.852 12.4864 112.536 13.2594C111.996 14.5813 111.074 15.5219 109.731 16.0208C108.321 16.5447 106.883 16.5788 105.46 16.104C103.491 15.4466 102.411 14.0232 102.081 11.9996C102.004 11.5243 101.969 11.046 101.969 10.564C101.973 8.42962 101.971 6.2952 101.974 4.16078C101.975 3.3893 101.978 3.38932 102.756 3.38934C103.067 3.38936 103.378 3.38895 103.688 3.38942C104.145 3.3901 104.149 3.39161 104.149 3.86325C104.149 4.63484 104.144 5.40642 104.142 6.17801C104.14 6.659 104.141 7.14001 104.141 7.62101C104.144 7.62101 104.147 7.62101 104.149 7.62101Z" fill="black"/>
<path d="M38.4769 7.61606C38.4769 8.87865 38.4389 10.1427 38.4874 11.4034C38.5375 12.7067 39.1375 13.7377 40.361 14.2543C42.399 15.1146 44.7549 14.1353 45.081 11.6561C45.1138 11.4067 45.1306 11.1585 45.1303 10.9077C45.1275 8.50275 45.1281 6.09776 45.1192 3.6928C45.1184 3.4804 45.1605 3.38065 45.3959 3.38604C45.9368 3.39843 46.4782 3.39577 47.0192 3.38732C47.2385 3.38389 47.3232 3.4711 47.3225 3.68853C47.3157 6.07345 47.3286 8.45855 47.3017 10.8432C47.2923 11.6739 47.1771 12.5012 46.8542 13.2827C46.3085 14.6032 45.3793 15.5374 44.0356 16.0301C42.624 16.5478 41.1847 16.5777 39.7643 16.0967C37.8104 15.4349 36.7393 14.0149 36.4095 12.0049C36.3316 11.5298 36.2964 11.0514 36.2971 10.5694C36.3005 8.41497 36.2987 6.2605 36.3018 4.10604C36.3029 3.38949 36.3071 3.3895 37.0187 3.38954C37.3794 3.38955 37.7411 3.40554 38.1006 3.38465C38.3963 3.36746 38.4823 3.48923 38.4804 3.76814C38.4715 5.05072 38.4765 6.33341 38.4769 7.61606Z" fill="black"/>
<path d="M96.1467 10.6827C96.1467 12.3757 96.1471 14.0687 96.1464 15.7617C96.1463 16.1586 96.1307 16.1746 95.7475 16.1759C95.2867 16.1774 94.8259 16.1773 94.365 16.1759C93.9746 16.1748 93.9644 16.1657 93.9643 15.7671C93.9634 12.8419 93.9637 9.91671 93.9631 6.99152C93.9631 6.56076 93.9612 6.13001 93.9586 5.69925C93.9559 5.26692 93.9254 5.2321 93.5006 5.23088C92.3987 5.22773 91.2966 5.21948 90.1948 5.23463C89.8993 5.23869 89.7793 5.17184 89.8058 4.85238C89.8372 4.47422 89.822 4.09149 89.8138 3.71102C89.8089 3.48839 89.8786 3.38583 90.1223 3.38623C93.4081 3.39159 96.6939 3.3914 99.9797 3.38636C100.215 3.386 100.305 3.47523 100.3 3.70346C100.29 4.10396 100.286 4.50477 100.291 4.90534C100.293 5.15186 100.185 5.23145 99.942 5.22965C98.8001 5.22121 97.6579 5.23674 96.5161 5.22338C96.2216 5.21994 96.1435 5.32031 96.1453 5.60375C96.1564 7.29667 96.1508 8.98971 96.1508 10.6827L96.1467 10.6827Z" fill="black"/>
<path d="M133.889 9.72105C133.889 7.70754 133.893 5.69401 133.884 3.68054C133.883 3.45266 133.953 3.38157 134.174 3.3862C134.705 3.39731 135.236 3.39662 135.767 3.38672C135.996 3.38245 136.099 3.46398 136.089 3.69989C136.078 3.9599 136.086 4.2207 136.086 4.48116C136.087 7.58659 136.087 10.692 136.089 13.7974C136.09 14.306 136.113 14.3322 136.637 14.3335C138.54 14.3383 140.443 14.3378 142.347 14.3393C142.808 14.3397 142.815 14.3467 142.815 14.8096C142.815 15.1402 142.802 15.4714 142.819 15.8011C142.835 16.0896 142.724 16.1831 142.436 16.1813C140.753 16.171 139.071 16.1764 137.388 16.1764C136.376 16.1764 135.364 16.1767 134.352 16.1762C133.899 16.1761 133.897 16.1754 133.897 15.7316C133.896 13.7281 133.897 11.7246 133.897 9.72105C133.894 9.72105 133.892 9.72105 133.889 9.72105Z" fill="black"/>
<path d="M186.09 9.74425C186.09 7.72006 186.093 5.69585 186.086 3.67168C186.085 3.46507 186.141 3.38306 186.354 3.38684C186.895 3.39644 187.436 3.39751 187.977 3.38664C188.217 3.38183 188.293 3.48365 188.291 3.70976C188.282 4.45122 188.284 5.19279 188.285 5.93433C188.286 8.5698 188.288 11.2053 188.291 13.8407C188.291 14.2967 188.321 14.3309 188.791 14.3324C190.685 14.3388 192.579 14.3386 194.473 14.3418C194.99 14.3426 195.012 14.3579 194.943 14.8679C194.899 15.1931 194.964 15.5073 194.995 15.8242C195.019 16.067 194.957 16.1789 194.696 16.1785C191.93 16.1744 189.164 16.1731 186.398 16.18C186.091 16.1808 186.096 16.0001 186.097 15.7868C186.098 13.7726 186.098 11.7584 186.098 9.74425C186.095 9.74425 186.093 9.74425 186.09 9.74425Z" fill="black"/>
<path d="M60.8356 26.0018C61.0466 25.6214 61.1276 25.2588 61.2459 24.9117C61.498 24.1724 61.7384 23.4291 61.9796 22.6861C62.0314 22.5264 62.0773 22.3908 62.2922 22.3883C62.5205 22.3857 62.5692 22.5276 62.6256 22.6997C62.9371 23.6514 63.2547 24.6012 63.5727 25.5507C63.6195 25.6904 63.6523 25.8389 63.7666 25.9625C63.8783 25.8967 63.88 25.7784 63.913 25.6827C64.2581 24.6788 64.5996 23.6738 64.9427 22.6693C64.9877 22.5375 65.0176 22.4065 65.2059 22.3898C65.5683 22.3576 65.6301 22.4235 65.5085 22.7649C65.0482 24.0572 64.5875 25.3494 64.1256 26.6411C64.0616 26.8199 64.0122 27.0069 63.7548 27.0048C63.4938 27.0026 63.46 26.811 63.3992 26.6305C63.0797 25.6815 62.7601 24.7325 62.4366 23.7848C62.4092 23.7046 62.4166 23.5717 62.3131 23.565C62.1878 23.5569 62.1788 23.6988 62.149 23.7854C61.8262 24.7228 61.5096 25.6623 61.1908 26.6011C61.1313 26.7764 61.1182 26.9859 60.8583 27.0022C60.5918 27.0189 60.5257 26.8316 60.4569 26.6364C59.9972 25.3331 59.5352 24.0307 59.0774 22.7268C59.042 22.6259 58.914 22.4786 59.0817 22.4208C59.2494 22.363 59.4676 22.3171 59.5929 22.5284C59.6532 22.6302 59.6843 22.7499 59.7237 22.8632C60.0658 23.8468 60.4066 24.8309 60.7487 25.8144C60.7644 25.8596 60.7888 25.9017 60.8356 26.0018Z" fill="black"/>
<path d="M117.97 24.6834C117.97 24.0221 117.978 23.3607 117.966 22.6996C117.962 22.4639 118.042 22.3826 118.278 22.3874C118.879 22.3998 119.48 22.3835 120.081 22.3949C120.539 22.4036 120.95 22.5605 121.272 22.8904C121.953 23.5887 121.716 24.6677 120.795 25.1085C120.461 25.2681 120.454 25.2743 120.694 25.5691C121.023 25.9725 121.31 26.4101 121.678 26.7815C121.724 26.828 121.806 26.8749 121.768 26.9541C121.731 27.0291 121.644 26.9959 121.577 27.0033C121.31 27.0329 121.11 26.9661 120.941 26.7199C120.641 26.2833 120.294 25.8783 119.969 25.4589C119.919 25.394 119.87 25.327 119.78 25.3262C119.43 25.3229 119.079 25.3205 118.729 25.3243C118.562 25.3262 118.583 25.4509 118.585 25.5636C118.589 25.9243 118.586 26.285 118.592 26.6456C118.596 26.8635 118.551 27.0054 118.28 27.0098C118.016 27.0142 117.963 26.9 117.966 26.6672C117.977 26.0061 117.97 25.3447 117.97 24.6834ZM118.604 23.81L118.592 23.8104C118.592 24.0602 118.593 24.3101 118.592 24.56C118.592 24.6986 118.637 24.7952 118.796 24.7945C119.255 24.7923 119.718 24.8248 120.174 24.7797C120.812 24.7165 121.091 24.3464 121.049 23.7178C121.015 23.2152 120.645 22.9176 120.047 22.9148C119.637 22.9129 119.227 22.9184 118.818 22.9133C118.626 22.9109 118.544 22.9767 118.571 23.1819C118.598 23.3892 118.594 23.6005 118.604 23.81Z" fill="black"/>
<path d="M45.448 24.667C45.448 24.0161 45.4555 23.3651 45.4442 22.7144C45.4399 22.4648 45.5348 22.3824 45.7793 22.3874C46.3999 22.4 47.0211 22.3835 47.6418 22.3956C48.3188 22.4087 48.9189 22.8679 49.0798 23.4731C49.2574 24.1415 48.9869 24.7575 48.341 25.0649C47.8543 25.2965 47.971 25.3313 48.2219 25.6521C48.5299 26.0459 48.8575 26.4244 49.1745 26.8112C49.2041 26.8472 49.2421 26.8992 49.2357 26.937C49.2229 27.0128 49.1445 26.9951 49.0878 27.0021C48.8102 27.0361 48.5877 26.9681 48.4097 26.7247C48.1027 26.3049 47.7665 25.9064 47.4504 25.4929C47.3555 25.3688 47.2467 25.3148 47.0929 25.3186C46.8327 25.3251 46.5718 25.3299 46.312 25.3175C46.0836 25.3066 45.9936 25.4076 46.0292 25.6221C46.0906 25.9926 46.0054 26.3617 46.0282 26.7306C46.0396 26.9142 45.9987 27.0129 45.788 27.0072C45.5965 27.002 45.447 26.9805 45.4479 26.7399C45.4501 26.1891 45.4482 25.6383 45.448 25.0876C45.448 24.9474 45.448 24.8072 45.448 24.667ZM46.0248 23.8626C46.0248 24.0924 46.0274 24.3222 46.0239 24.5519C46.0215 24.7084 46.0782 24.7977 46.2489 24.7964C46.6884 24.7932 47.1312 24.8278 47.5667 24.7858C48.0589 24.7384 48.5677 24.4905 48.5293 23.8263C48.4987 23.2975 48.1783 22.9457 47.6147 22.9205C47.1661 22.9004 46.7158 22.9189 46.2663 22.914C46.0823 22.912 46.0193 23.0023 46.0229 23.1733C46.0278 23.403 46.0241 23.6329 46.0248 23.8626Z" fill="black"/>
<path d="M80.231 22.3921C81.5499 22.3973 82.5857 23.4095 82.5842 24.6917C82.5828 25.9842 81.5114 27.0105 80.1706 27.0037C78.8683 26.9972 77.8547 25.9496 77.8657 24.6216C77.8758 23.402 78.9526 22.3871 80.231 22.3921ZM81.9497 24.7714C81.9491 23.6956 81.231 22.9127 80.2459 22.914C79.1925 22.9154 78.4772 23.6518 78.4782 24.7338C78.4791 25.7509 79.2049 26.4827 80.2143 26.4844C81.2139 26.486 81.9502 25.7592 81.9497 24.7714Z" fill="black"/>
<path d="M54.2202 27.0038C52.8911 27.0015 51.8751 25.9653 51.8853 24.6228C51.8947 23.4032 52.971 22.3873 54.2488 22.3921C55.5671 22.3971 56.6054 23.4106 56.6039 24.691C56.6023 25.9721 55.5366 27.0061 54.2202 27.0038ZM55.9695 24.7844C55.9705 23.7031 55.2577 22.9148 54.2782 22.9142C53.215 22.9134 52.5037 23.6349 52.4979 24.7199C52.4924 25.7508 53.2224 26.4857 54.2507 26.4844C55.2305 26.4832 55.9685 25.7532 55.9695 24.7844Z" fill="black"/>
<path d="M88.5844 24.5577C88.8047 24.5577 89.025 24.5606 89.2453 24.5567C89.4171 24.5537 89.5055 24.6229 89.5041 24.8041C89.5006 25.2646 89.5027 25.7252 89.5036 26.1858C89.5039 26.3051 89.459 26.3991 89.359 26.4658C88.3763 27.122 87.1254 27.2213 86.211 26.5342C85.4804 25.9852 85.2555 25.233 85.3592 24.3863C85.4719 23.4665 86.0067 22.825 86.8892 22.518C87.668 22.2471 88.4089 22.3862 89.1008 22.8164C89.2152 22.8876 89.3819 22.9558 89.2656 23.1346C89.1559 23.3033 89.019 23.4209 88.7936 23.2725C88.4368 23.0377 88.052 22.8967 87.6095 22.911C86.6236 22.9429 85.9283 23.6887 85.9354 24.7314C85.9425 25.7583 86.6385 26.4714 87.627 26.488C88.0189 26.4945 88.3768 26.3954 88.7289 26.2429C88.9051 26.1666 88.9887 26.0476 88.9854 25.8484C88.9708 24.9815 89.0994 25.0871 88.2523 25.0796C88.1122 25.0783 87.972 25.0767 87.8318 25.0774C87.6589 25.0782 87.5672 24.9846 87.565 24.8209C87.5627 24.6512 87.6685 24.5668 87.8336 24.5644C88.0838 24.5609 88.3341 24.5635 88.5844 24.5635V24.5577Z" fill="black"/>
<path d="M108.629 24.7219C108.629 25.383 108.626 26.0441 108.631 26.7051C108.632 26.8907 108.6 27.0077 108.371 27.008C108.155 27.0083 108.015 26.9527 108.013 26.7166C108.009 26.2059 107.996 25.6947 108.016 25.1848C108.026 24.9394 107.965 24.8327 107.708 24.8362C107.047 24.8452 106.385 24.8456 105.724 24.8358C105.491 24.8324 105.418 24.9366 105.446 25.1467C105.519 25.6866 105.462 26.226 105.448 26.7659C105.444 26.9282 105.406 27.0125 105.231 27.004C105.073 26.9962 104.894 27.0323 104.871 26.7953C104.865 26.7356 104.864 26.6753 104.864 26.6152C104.861 25.2931 104.862 23.9709 104.851 22.6488C104.85 22.4438 104.93 22.3822 105.117 22.3904C105.296 22.3983 105.497 22.3569 105.486 22.6438C105.468 23.0937 105.464 23.5444 105.439 23.9938C105.424 24.2472 105.526 24.3246 105.771 24.3198C106.412 24.3072 107.053 24.3168 107.694 24.3151C108.034 24.3142 108.074 24.2772 108.037 23.9265C107.996 23.5263 108.027 23.1256 108.006 22.7258C107.994 22.4886 108.072 22.387 108.33 22.3841C108.608 22.3809 108.634 22.5191 108.632 22.7386C108.624 23.3996 108.629 24.0608 108.629 24.7219Z" fill="black"/>
<path d="M113.435 22.3915C113.895 22.3915 114.356 22.3939 114.816 22.3904C114.993 22.389 115.128 22.4019 115.127 22.6403C115.125 22.8821 114.998 22.9172 114.802 22.9159C114.071 22.9113 113.34 22.92 112.609 22.9114C112.374 22.9086 112.288 22.9776 112.32 23.2275C112.353 23.494 112.342 23.7673 112.336 24.0372C112.331 24.2444 112.415 24.3213 112.621 24.3182C113.172 24.3099 113.722 24.3154 114.273 24.316C114.353 24.316 114.434 24.315 114.513 24.3215C114.674 24.3345 114.827 24.3828 114.828 24.5728C114.83 24.7795 114.671 24.8347 114.496 24.8357C113.875 24.8393 113.254 24.8451 112.634 24.8353C112.411 24.8318 112.308 24.8741 112.33 25.1345C112.359 25.4824 112.347 25.8354 112.328 26.1848C112.315 26.4153 112.405 26.4848 112.621 26.4829C113.352 26.4763 114.083 26.4845 114.814 26.4785C115.014 26.4769 115.133 26.5127 115.129 26.7557C115.124 26.9926 114.992 27.0053 114.816 27.0048C113.885 27.0022 112.953 26.9976 112.022 27.0077C111.786 27.0102 111.71 26.928 111.711 26.6945C111.719 25.3629 111.72 24.0312 111.711 22.6995C111.71 22.4644 111.787 22.3808 112.023 22.3876C112.493 22.401 112.964 22.3916 113.435 22.3915Z" fill="black"/>
<path d="M92.4707 24.6872C92.4707 24.0264 92.4773 23.3655 92.467 22.7048C92.4634 22.4769 92.531 22.3845 92.7733 22.3873C93.7143 22.3981 94.6556 22.3934 95.5967 22.3905C95.7698 22.3899 95.8833 22.4212 95.8812 22.6352C95.8793 22.8434 95.795 22.9176 95.5923 22.916C94.8514 22.9103 94.1104 22.9193 93.3695 22.9117C93.1415 22.9094 93.0402 22.9652 93.0747 23.2224C93.1089 23.4785 93.1001 23.7423 93.09 24.002C93.081 24.232 93.1617 24.3251 93.4014 24.3196C93.9518 24.3069 94.5027 24.3153 95.0533 24.3163C95.1433 24.3165 95.2344 24.3152 95.3231 24.3278C95.4619 24.3474 95.5812 24.4099 95.5854 24.5676C95.59 24.7397 95.4715 24.8197 95.3163 24.8302C95.1268 24.843 94.9361 24.8383 94.7459 24.8387C94.2753 24.8396 93.8046 24.8453 93.3342 24.8362C93.1375 24.8324 93.0746 24.8963 93.0856 25.099C93.1045 25.4483 93.1053 25.8004 93.0832 26.1495C93.0672 26.4013 93.1502 26.4883 93.4015 26.4844C94.1222 26.4734 94.8433 26.4839 95.5641 26.479C95.7586 26.4776 95.889 26.5019 95.8843 26.7505C95.88 26.9824 95.7578 27.0059 95.5765 27.0052C94.6454 27.0018 93.7141 26.9962 92.7831 27.0084C92.5224 27.0118 92.4627 26.9054 92.4667 26.6697C92.478 26.009 92.4707 25.3481 92.4707 24.6872Z" fill="black"/>
<path d="M41.6396 24.5629C41.8411 24.5925 42.2147 24.4244 42.4132 24.6325C42.5964 24.8245 42.4575 25.1885 42.4753 25.476C42.4803 25.5559 42.4629 25.6389 42.4782 25.7161C42.5888 26.2743 42.2933 26.5407 41.8207 26.7564C40.5354 27.3432 39.0871 26.8987 38.5253 25.7105C37.7973 24.1706 38.9271 22.397 40.6292 22.386C41.1639 22.3826 41.6329 22.5395 42.0688 22.826C42.1786 22.8981 42.35 22.9662 42.2351 23.1469C42.1297 23.3126 41.9929 23.4039 41.7833 23.2718C41.3103 22.9737 40.7974 22.8227 40.2368 22.9447C39.2567 23.1581 38.7204 24.0983 38.9489 25.185C39.1447 26.1163 40.0652 26.6672 41.0748 26.4569C41.1238 26.4467 41.1723 26.4338 41.2207 26.4207C41.9381 26.2275 42.0995 25.9605 41.9519 25.2379C41.9209 25.0858 41.8242 25.0802 41.7095 25.0799C41.4188 25.0792 41.1282 25.0766 40.8375 25.0783C40.6628 25.0794 40.5412 25.0188 40.5353 24.826C40.5293 24.63 40.6512 24.5642 40.825 24.5632C41.0655 24.5618 41.306 24.5629 41.6396 24.5629Z" fill="black"/>
<path d="M99.9276 24.9524C99.9276 24.3818 99.9181 23.8109 99.9321 23.2407C99.938 22.9983 99.8693 22.8943 99.6122 22.9101C99.3131 22.9285 99.0118 22.9102 98.7116 22.9148C98.5449 22.9174 98.4399 22.8606 98.4339 22.6804C98.4278 22.4964 98.5147 22.3968 98.7015 22.3966C99.7225 22.3958 100.744 22.394 101.765 22.3981C101.925 22.3987 102.078 22.4587 102.079 22.6487C102.079 22.8553 101.92 22.9085 101.746 22.9113C101.455 22.9158 101.165 22.9252 100.875 22.911C100.637 22.8994 100.562 22.9942 100.563 23.2264C100.571 24.3675 100.559 25.5088 100.572 26.6499C100.575 26.9311 100.475 27.0194 100.205 27.0089C99.998 27.0008 99.9226 26.9302 99.9256 26.7242C99.934 26.1337 99.9285 25.543 99.9285 24.9524H99.9276Z" fill="black"/>
<path d="M73.4661 24.9374C73.4661 24.3668 73.4578 23.796 73.4702 23.2257C73.4752 22.9965 73.4124 22.8958 73.1662 22.91C72.8569 22.9279 72.5457 22.9102 72.2354 22.9143C72.0612 22.9166 71.9733 22.84 71.9724 22.6656C71.9716 22.4966 72.0524 22.3982 72.2248 22.3979C73.2558 22.3962 74.2868 22.3946 75.3178 22.3998C75.4798 22.4006 75.6262 22.4721 75.6177 22.6633C75.6094 22.85 75.4637 22.9077 75.2995 22.9105C75.0092 22.9155 74.7182 22.9265 74.4288 22.9105C74.1768 22.8966 74.0994 22.995 74.1014 23.2412C74.1108 24.3723 74.1057 25.5035 74.1046 26.6347C74.1043 26.9817 74.0655 27.0088 73.7287 27.0062C73.5352 27.0046 73.4629 26.9309 73.465 26.7393C73.4714 26.1387 73.4673 25.538 73.4673 24.9374H73.4661Z" fill="black"/>
</svg>
