<svg width="26" height="26" viewBox="0 0 26 26" fill="none" xmlns="http://www.w3.org/2000/svg">
<path d="M20.332 5.68035L20.3458 5.66522" stroke="white" stroke-width="1.5" stroke-linecap="round" stroke-linejoin="round"/>
<path d="M0.998047 18.3333V7.66667C0.998047 5.89856 1.70043 4.20286 2.95067 2.95262C4.20091 1.70238 5.8966 1 7.66471 1H18.3314C20.0995 1 21.7952 1.70238 23.0454 2.95262C24.2957 4.20286 24.998 5.89856 24.998 7.66667V18.3333C24.998 20.1014 24.2957 21.7971 23.0454 23.0474C21.7952 24.2976 20.0995 25 18.3314 25H7.66471C5.8966 25 4.20091 24.2976 2.95067 23.0474C1.70043 21.7971 0.998047 20.1014 0.998047 18.3333Z" stroke="white" stroke-width="1.5"/>
<path d="M12.9974 18.3334C14.4119 18.3334 15.7684 17.7715 16.7686 16.7713C17.7688 15.7711 18.3307 14.4145 18.3307 13C18.3307 11.5855 17.7688 10.229 16.7686 9.22878C15.7684 8.22859 14.4119 7.66669 12.9974 7.66669C11.5829 7.66669 10.2264 8.22859 9.22616 9.22878C8.22597 10.229 7.66406 11.5855 7.66406 13C7.66406 14.4145 8.22597 15.7711 9.22616 16.7713C10.2264 17.7715 11.5829 18.3334 12.9974 18.3334Z" stroke="white" stroke-width="1.5" stroke-linecap="round" stroke-linejoin="round"/>
</svg>
