<svg width="24" height="24" viewBox="0 0 24 24" fill="none" xmlns="http://www.w3.org/2000/svg">
<path d="M7.49899 8.99997H3.49899C3.36638 8.99997 3.2392 9.05265 3.14543 9.14642C3.05166 9.24019 2.99899 9.36736 2.99899 9.49997V21.5C2.99899 21.6326 3.05166 21.7598 3.14543 21.8535C3.2392 21.9473 3.36638 22 3.49899 22H7.49899C7.63159 22 7.75877 21.9473 7.85254 21.8535C7.94631 21.7598 7.99899 21.6326 7.99899 21.5V9.49997C7.99899 9.36736 7.94631 9.24019 7.85254 9.14642C7.75877 9.05265 7.63159 8.99997 7.49899 8.99997ZM6.99899 21H3.99899V9.99997H6.99899V21ZM17.999 8.99997C16.914 8.99997 15.859 9.35797 14.999 10.019V9.49997C14.999 9.36736 14.9463 9.24019 14.8525 9.14642C14.7588 9.05265 14.6316 8.99997 14.499 8.99997H10.499C10.3664 8.99997 10.2392 9.05265 10.1454 9.14642C10.0517 9.24019 9.99899 9.36736 9.99899 9.49997V21.5C9.99899 21.6326 10.0517 21.7598 10.1454 21.8535C10.2392 21.9473 10.3664 22 10.499 22H14.499C14.6316 22 14.7588 21.9473 14.8525 21.8535C14.9463 21.7598 14.999 21.6326 14.999 21.5V16C14.999 15.6021 15.157 15.2206 15.4383 14.9393C15.7196 14.658 16.1012 14.5 16.499 14.5C16.8968 14.5 17.2783 14.658 17.5596 14.9393C17.8409 15.2206 17.999 15.6021 17.999 16V21.5C17.999 21.6326 18.0517 21.7598 18.1454 21.8535C18.2392 21.9473 18.3664 22 18.499 22H22.499C22.6316 22 22.7588 21.9473 22.8525 21.8535C22.9463 21.7598 22.999 21.6326 22.999 21.5V14C22.9974 12.6744 22.4701 11.4035 21.5328 10.4662C20.5954 9.52886 19.3246 9.00156 17.999 8.99997ZM21.999 21H18.999V16C18.999 15.3369 18.7356 14.701 18.2668 14.2322C17.7979 13.7634 17.162 13.5 16.499 13.5C15.8359 13.5 15.2001 13.7634 14.7312 14.2322C14.2624 14.701 13.999 15.3369 13.999 16V21H10.999V9.99997H13.999V11.203C13.999 11.3065 14.0311 11.4075 14.0909 11.4921C14.1508 11.5766 14.2354 11.6404 14.3331 11.6748C14.4308 11.7091 14.5367 11.7123 14.6363 11.6839C14.7359 11.6554 14.8242 11.5967 14.889 11.516C15.4025 10.865 16.1064 10.3906 16.9024 10.1588C17.6984 9.92698 18.547 9.94936 19.3297 10.2228C20.1124 10.4963 20.7903 11.0072 21.2688 11.6842C21.7473 12.3613 22.0025 13.1709 21.999 14V21ZM5.86699 2.00197C5.74949 1.99369 5.63157 1.99302 5.51399 1.99997C5.13975 1.97451 4.76428 2.02616 4.41082 2.15171C4.05736 2.27727 3.73344 2.47406 3.45914 2.7299C3.18483 2.98574 2.96597 3.29518 2.81612 3.63904C2.66628 3.98291 2.58863 4.35388 2.58799 4.72897C2.58488 5.10015 2.65806 5.46801 2.80299 5.80974C2.94791 6.15147 3.1615 6.45978 3.4305 6.71556C3.6995 6.97134 4.01817 7.16913 4.36677 7.29666C4.71536 7.4242 5.08644 7.47876 5.45699 7.45697H5.48499C5.84317 7.48206 6.20278 7.43634 6.54329 7.32245C6.88381 7.20855 7.19855 7.0287 7.46956 6.79316C7.74057 6.55763 7.96253 6.27102 8.12277 5.9497C8.28302 5.62839 8.3784 5.27865 8.40349 4.92047C8.42857 4.56229 8.38286 4.20268 8.26896 3.86217C8.15506 3.52165 7.97521 3.2069 7.73968 2.9359C7.50414 2.66489 7.21753 2.44293 6.89622 2.28268C6.5749 2.12244 6.22517 2.02706 5.86699 2.00197ZM5.83199 6.45997C5.71651 6.47047 5.60027 6.46947 5.48499 6.45697H5.45699C5.21631 6.47507 4.97451 6.44277 4.74702 6.36216C4.51953 6.28155 4.31135 6.15439 4.13577 5.9888C3.96019 5.8232 3.82106 5.62282 3.72728 5.40044C3.63349 5.17805 3.58711 4.93856 3.59109 4.69724C3.59507 4.45592 3.64932 4.21808 3.75039 3.99891C3.85145 3.77974 3.99711 3.58405 4.17805 3.42434C4.359 3.26462 4.57126 3.14439 4.80128 3.07133C5.03131 2.99826 5.27404 2.97396 5.51399 2.99997C5.97281 2.9578 6.42959 3.09963 6.78385 3.39425C7.13811 3.68887 7.36082 4.11215 7.40299 4.57097C7.44515 5.0298 7.30333 5.48658 7.00871 5.84084C6.71409 6.19509 6.29081 6.4178 5.83199 6.45997Z" fill="white"/>
</svg>
