<svg width="38" height="26" viewBox="0 0 38 26" fill="none" xmlns="http://www.w3.org/2000/svg">
<path d="M19.8565 9.34857C23.22 3.78171 26.1714 0.998857 28.7108 1C32.52 1 34.9251 5.42629 36.3291 11.4331C37.6697 17.1726 37.2823 25 32.52 25C30.3977 25 27.4765 21.8697 24.6171 17.6971C22.7935 15.0561 21.2007 12.263 19.8565 9.34857ZM19.8565 9.34857C16.156 3.78171 12.9097 0.998857 10.1177 1C5.92626 1 3.28112 5.42629 1.73483 11.4331C0.262261 17.1743 0.690833 25 5.92798 25C8.26283 25 11.4771 21.8697 14.6194 17.6971C16.7131 14.912 18.4588 12.1291 19.8565 9.34857Z" stroke="white" stroke-width="1.5" stroke-linecap="round" stroke-linejoin="round"/>
</svg>
