<svg width="196" height="133" viewBox="0 0 196 133" fill="none" xmlns="http://www.w3.org/2000/svg">
<path d="M139.863 46.8658C139.734 46.8152 139.629 46.7279 139.612 46.5726C139.414 44.7829 138.636 43.1805 137.936 41.5641C136.336 37.8652 134.139 34.5333 131.388 31.5975C128.768 28.8018 125.848 26.3574 122.479 24.4759C120.442 23.3382 118.333 22.3599 116.133 21.608C114.392 21.0127 112.607 20.5638 110.779 20.2397C107.785 19.7087 104.779 19.5557 101.761 19.7022C99.862 19.7943 97.9905 20.1731 96.1159 20.5407C92.6926 21.2119 89.542 22.5456 86.4775 24.1321C84.5463 25.1318 82.8058 26.4281 81.0604 27.7186C79.5929 28.8037 78.3111 30.0805 77.1124 31.4339C75.4898 33.266 73.9275 35.1627 72.7453 37.317C72.1937 38.3223 71.441 39.2066 71.0101 40.2765C70.6895 41.0727 70.2781 41.8279 69.9969 42.6432C69.6776 43.569 69.275 44.4663 68.9609 45.3937C68.3753 47.1231 67.9152 48.8914 67.6515 50.697C67.4802 51.8702 67.2473 53.0417 67.2507 54.2376C67.2543 55.4695 67.2307 56.7016 67.2495 57.9332C67.2838 60.178 67.5859 62.3861 68.0623 64.5842C68.698 67.5176 69.7401 70.2956 71.0352 72.9865C72.1221 75.2448 73.4877 77.3385 75.015 79.3181C76.4725 81.2071 78.1074 82.9488 79.9512 84.4632C80.8925 85.2364 81.798 86.0595 82.8256 86.7368C83.7787 87.365 84.6876 88.0711 85.7008 88.5944C86.7821 89.1528 87.8157 89.8097 88.9587 90.2467C89.3451 90.3944 89.6758 90.6623 90.0886 90.7573C90.2081 90.7849 90.4078 90.8085 90.3479 91.007C90.2946 91.1835 90.1049 91.1699 89.9813 91.1177C89.3679 90.8584 88.6995 90.8691 88.0658 90.7047C86.6774 90.3446 85.291 89.979 83.9329 89.5177C82.9009 89.1672 81.8942 88.7453 80.8714 88.3681C79.8169 87.9791 78.8527 87.3661 77.8485 86.8534C76.0725 85.9466 74.4121 84.8686 72.804 83.7025C70.0541 81.7082 67.5837 79.4168 65.3805 76.8244C63.812 74.9789 62.4127 73.0172 61.1785 70.9441C60.0024 68.9684 58.9995 66.8997 58.1493 64.7566C57.1141 62.1471 56.369 59.4516 55.9126 56.6949C55.6057 54.8419 55.4167 52.9632 55.3015 51.0748C55.2055 49.503 55.3011 47.9493 55.3722 46.3964C55.4524 44.645 55.7451 42.9062 56.0964 41.1786C56.4737 39.3225 56.8995 37.4727 57.5334 35.6997C58.3748 33.3465 59.3664 31.0463 60.6067 28.8583C61.9043 26.5692 63.3675 24.3957 65.0306 22.3662C66.6133 20.4349 68.3999 18.6888 70.2963 17.0622C71.508 16.0229 72.8005 15.0888 74.1208 14.1912C75.9581 12.942 77.8891 11.854 79.8988 10.9192C81.6555 10.1021 83.4734 9.43817 85.3438 8.89955C86.6971 8.50985 88.0723 8.22042 89.4231 7.83808C90.2042 7.61701 91 7.56599 91.7859 7.47042C93.8457 7.21995 95.9129 6.9594 97.9929 7.01683C99.2982 7.05287 100.598 7.25553 101.904 7.31024C103.438 7.37455 104.934 7.66215 106.43 7.96178C107.896 8.25532 109.329 8.67489 110.764 9.09304C111.851 9.40994 112.883 9.85602 113.923 10.2887C118.143 12.0454 121.986 14.4133 125.424 17.4297C127.104 18.9031 128.674 20.4851 130.117 22.1926C131.854 24.2488 133.344 26.4776 134.687 28.8037C134.959 29.2735 135.254 29.7265 135.525 30.1855C135.958 30.919 136.122 31.8055 136.486 32.587C137.185 34.0866 137.702 35.6543 138.209 37.2184C138.622 38.494 138.935 39.811 139.146 41.145C139.307 42.1634 139.574 43.1715 139.649 44.1949C139.715 45.0851 140.13 45.9486 139.863 46.8658Z" fill="#FCC626"/>
<path d="M71.8537 57.7998C74.4394 65.1952 79.4191 70.4798 86.3136 73.8712C90.1053 75.7363 94.2849 76.4328 98.5465 76.2056C104.739 75.8756 110.243 73.6812 114.932 69.6639C119.441 65.8007 122.394 60.9138 123.611 55.0603C124.978 48.4848 124.101 42.2058 120.84 36.3243C117.548 30.3872 112.581 26.375 106.223 24.0216C107.163 23.8195 108.046 24.0365 108.918 24.1784C110.835 24.4903 112.731 24.8987 114.583 25.5143C117.214 26.3883 119.707 27.5386 122.032 29.0409C124.58 30.6874 126.87 32.6559 128.919 34.8845C130.812 36.9423 132.38 39.2477 133.575 41.7778C134.738 44.2398 135.669 46.7984 136.22 49.4703C136.5 50.8251 136.733 52.194 136.812 53.5877C136.865 54.5219 137.072 55.4572 136.994 56.3913C136.856 58.061 136.86 59.7353 136.614 61.4057C136.327 63.3516 135.903 65.2515 135.303 67.1137C134.91 68.3309 134.39 69.5023 133.851 70.6652C132.302 74.0045 130.04 76.831 127.524 79.4667C126.234 80.8186 124.781 82.0066 123.288 83.1264C121.401 84.5408 119.339 85.6753 117.164 86.5854C116.032 87.0587 114.877 87.4707 113.703 87.8422C112.944 88.0823 112.169 88.2752 111.405 88.3904C110.272 88.5613 109.182 88.9169 108.022 88.9979C105.905 89.1456 103.801 89.1346 101.687 88.9976C97.0801 88.6988 92.8063 87.3133 88.7828 85.0995C85.6769 83.3904 82.9202 81.2354 80.4998 78.6382C77.9335 75.8846 75.9131 72.7789 74.4229 69.3336C73.7135 67.6936 73.0391 66.0243 72.643 64.2796C72.2465 62.5334 71.9327 60.7619 71.8184 58.9686C71.7948 58.5986 71.8809 58.218 71.8537 57.7998Z" fill="#557DE4"/>
<path d="M68.5322 8.42922C68.6437 13.4725 64.4953 16.8914 60.2714 16.9473C55.4853 17.0107 52.0024 13.1958 51.7061 9.07919C51.3104 3.58201 56.0876 -0.210939 60.4843 0.0090967C64.8501 0.227581 68.6614 3.78911 68.5322 8.42922Z" fill="#FCC626"/>
<path d="M103.039 60.6807C103.138 57.3305 105.651 54.7469 108.83 54.5722C112.632 54.3633 115.449 57.2499 115.403 60.7539C115.358 64.2751 112.808 66.9055 109.198 66.933C106.109 66.9566 103.202 64.6559 103.039 60.6807Z" fill="#557DE4"/>
<path d="M151.722 111.569C151.722 109.082 151.726 106.596 151.716 104.109C151.715 103.831 151.797 103.743 152.072 103.744C154.682 103.751 157.294 103.694 159.902 103.772C161.225 103.811 162.47 104.235 163.453 105.233C165.018 106.819 164.751 109.881 162.916 111.146C162.655 111.326 162.662 111.488 162.935 111.632C164.245 112.324 165.132 114.147 164.957 115.653C164.696 117.886 163.128 118.994 161.08 119.388C160.171 119.563 159.26 119.538 158.346 119.539C156.342 119.541 154.337 119.54 152.333 119.539C151.733 119.539 151.732 119.539 151.731 118.955C151.731 116.493 151.731 114.031 151.731 111.569C151.728 111.569 151.725 111.569 151.722 111.569ZM157.429 112.556C156.43 112.556 155.638 112.569 154.847 112.55C154.518 112.542 154.422 112.659 154.426 112.98C154.443 114.228 154.436 115.476 154.44 116.725C154.442 117.195 154.492 117.255 154.978 117.259C156.239 117.271 157.5 117.267 158.761 117.275C159.318 117.278 159.867 117.243 160.417 117.137C161.557 116.917 162.259 116.122 162.274 114.978C162.29 113.776 161.619 112.949 160.472 112.692C159.393 112.45 158.304 112.598 157.429 112.556ZM157.206 110.283C157.911 110.283 158.617 110.273 159.322 110.287C159.791 110.297 160.227 110.181 160.661 110.027C161.357 109.779 161.778 109.304 161.829 108.555C161.889 107.669 161.735 106.866 160.855 106.401C160.328 106.122 159.751 106.025 159.169 106.019C157.721 106.003 156.273 106.023 154.825 106.016C154.548 106.015 154.424 106.089 154.427 106.392C154.439 107.568 154.436 108.743 154.425 109.919C154.422 110.192 154.518 110.292 154.792 110.287C155.597 110.275 156.401 110.283 157.206 110.283Z" fill="black"/>
<path d="M17.1389 111.59C17.1389 109.091 17.1424 106.592 17.1336 104.093C17.1326 103.835 17.2067 103.743 17.4671 103.744C20.1022 103.75 22.7393 103.691 25.3719 103.774C26.6522 103.814 27.8662 104.231 28.8285 105.191C30.4512 106.809 30.1845 109.887 28.2895 111.175C28.0524 111.336 28.0667 111.485 28.3326 111.622C29.6423 112.296 30.5471 114.125 30.3767 115.631C30.1229 117.875 28.5562 118.995 26.4817 119.39C25.5602 119.565 24.6364 119.536 23.7107 119.538C21.6941 119.541 19.6774 119.539 17.6608 119.538C17.1557 119.538 17.149 119.532 17.1488 119.013C17.1479 116.539 17.1484 114.064 17.1484 111.59C17.1452 111.59 17.1421 111.59 17.1389 111.59ZM22.8399 112.555C21.8566 112.555 21.0773 112.572 20.2993 112.548C19.9339 112.537 19.8371 112.67 19.8426 113.018C19.8624 114.254 19.8528 115.491 19.8577 116.727C19.8595 117.194 19.9106 117.252 20.3979 117.259C21.2507 117.27 22.1039 117.279 22.9566 117.266C23.9174 117.252 24.8787 117.335 25.8376 117.138C26.9719 116.904 27.677 116.12 27.6915 114.975C27.7067 113.773 27.0359 112.948 25.8867 112.691C24.8077 112.45 23.7189 112.597 22.8399 112.555ZM22.6212 110.282C23.4009 110.282 24.1828 110.319 24.9596 110.272C25.7081 110.226 26.4573 110.066 26.9382 109.416C27.7142 108.366 27.1691 106.675 25.9352 106.25C25.538 106.113 25.1213 106.021 24.6996 106.019C23.2021 106.011 21.7046 106.023 20.2071 106.016C19.9283 106.014 19.8438 106.122 19.8457 106.389C19.8541 107.565 19.8529 108.741 19.8423 109.917C19.8398 110.187 19.9319 110.291 20.2079 110.287C21.0122 110.275 21.8167 110.282 22.6212 110.282Z" fill="black"/>
<path d="M60.9743 114.864C61.0896 114.655 61.0526 114.479 61.0468 114.311C60.9319 110.972 60.9654 107.631 60.9619 104.291C60.9614 103.748 60.9631 103.748 61.5171 103.747C62.0987 103.746 62.6809 103.762 63.2617 103.741C63.5881 103.729 63.6896 103.843 63.687 104.167C63.6739 105.8 63.6812 107.434 63.6812 109.067C63.6812 112.372 63.6814 115.676 63.681 118.98C63.681 119.351 63.5009 119.538 63.1407 119.539C62.621 119.539 62.1011 119.532 61.5816 119.542C61.3628 119.546 61.2186 119.469 61.084 119.292C58.4891 115.871 55.8879 112.456 53.288 109.039C53.2805 109.03 53.2736 109.019 53.2644 109.011C53.1237 108.889 53.0807 108.562 52.8827 108.639C52.7237 108.701 52.823 108.999 52.8228 109.191C52.8196 112.483 52.8175 115.775 52.8269 119.066C52.8278 119.412 52.7291 119.56 52.3627 119.545C51.782 119.521 51.1997 119.54 50.6181 119.538C50.1384 119.537 50.1263 119.526 50.1262 119.03C50.1252 115.231 50.1261 111.432 50.1249 107.633C50.1246 106.457 50.1283 105.282 50.11 104.106C50.1056 103.824 50.195 103.735 50.4682 103.743C51.0123 103.757 51.5576 103.761 52.1014 103.741C52.4077 103.73 52.6092 103.846 52.7887 104.085C54.8371 106.817 56.8899 109.546 58.9462 112.272C59.572 113.102 60.2118 113.921 60.8463 114.744C60.8746 114.781 60.9145 114.809 60.9743 114.864Z" fill="black"/>
<path d="M141.235 119.855C138.9 119.824 137.057 119.354 135.484 118.095C133.773 116.727 132.912 114.887 132.729 112.74C132.615 111.393 132.682 110.044 133.175 108.752C134.239 105.966 136.29 104.416 139.187 103.895C139.924 103.763 140.663 103.705 141.402 103.753C144.985 103.988 148.374 106.158 148.874 110.686C149.028 112.084 148.925 113.449 148.455 114.78C147.579 117.263 145.81 118.784 143.325 119.511C142.534 119.743 141.718 119.884 141.235 119.855ZM146.255 111.662C146.263 111.36 146.227 110.928 146.15 110.501C145.807 108.614 144.816 107.203 143.009 106.486C142.035 106.099 141.025 105.964 139.935 106.14C138.321 106.402 137.069 107.12 136.216 108.501C135.378 109.856 135.223 111.345 135.424 112.9C135.823 115.999 138.705 117.794 141.464 117.484C142.87 117.326 144.082 116.783 145 115.667C145.928 114.54 146.246 113.218 146.255 111.662Z" fill="black"/>
<path d="M114.123 110.581C115.137 110.581 116.152 110.59 117.167 110.576C117.487 110.571 117.604 110.68 117.602 111.004C117.59 113.009 117.59 115.013 117.591 117.018C117.591 117.245 117.518 117.424 117.347 117.573C116.038 118.718 114.532 119.421 112.808 119.7C112.117 119.811 111.432 119.863 110.742 119.831C109.083 119.754 107.512 119.36 106.135 118.385C104.451 117.194 103.459 115.546 103.127 113.532C102.724 111.084 103.052 108.767 104.641 106.753C105.827 105.251 107.405 104.363 109.246 103.959C111.3 103.509 113.3 103.727 115.205 104.651C115.856 104.967 116.411 105.426 116.987 105.854C117.135 105.964 117.146 106.077 117.002 106.22C116.564 106.656 116.135 107.102 115.708 107.549C115.552 107.713 115.419 107.744 115.239 107.574C114.343 106.728 113.261 106.343 112.053 106.133C110.883 105.929 109.8 106.142 108.77 106.582C106.961 107.357 105.988 108.82 105.709 110.745C105.553 111.821 105.593 112.889 105.934 113.937C106.617 116.041 108.116 117.092 110.251 117.434C111.806 117.683 113.204 117.354 114.551 116.613C114.961 116.388 115.158 116.111 115.128 115.614C115.081 114.824 115.104 114.03 115.114 113.238C115.117 112.951 115.011 112.845 114.722 112.848C113.497 112.86 112.271 112.845 111.047 112.865C110.752 112.869 110.648 112.794 110.659 112.496C110.679 112.002 110.685 111.505 110.658 111.011C110.639 110.653 110.79 110.571 111.115 110.575C112.118 110.59 113.12 110.581 114.123 110.581Z" fill="black"/>
<path d="M181.642 119.539C181.32 119.539 180.996 119.517 180.677 119.545C180.316 119.578 180.145 119.414 180.013 119.098C179.665 118.266 179.279 117.448 178.927 116.617C178.82 116.366 178.682 116.265 178.401 116.266C175.827 116.276 173.253 116.275 170.679 116.266C170.403 116.265 170.25 116.355 170.142 116.609C169.77 117.486 169.376 118.353 169.001 119.229C168.921 119.417 168.832 119.543 168.603 119.541C167.836 119.534 167.068 119.538 166.301 119.539C166.104 119.539 165.991 119.511 166.106 119.261C166.941 117.439 167.769 115.615 168.591 113.787C169.962 110.741 171.361 107.707 172.671 104.635C172.98 103.909 173.343 103.652 174.088 103.736C174.614 103.795 175.152 103.755 175.684 103.744C175.923 103.74 176.054 103.815 176.159 104.051C177.88 107.917 179.612 111.777 181.343 115.638C181.885 116.845 182.426 118.053 182.979 119.256C183.088 119.491 183.006 119.54 182.793 119.539C182.409 119.536 182.025 119.538 181.642 119.538V119.539ZM174.576 106.679C174.466 106.71 174.447 106.767 174.422 106.824C173.446 109.067 172.468 111.309 171.493 113.552C171.323 113.943 171.362 114.002 171.793 114.002C173.524 114.005 175.254 114.002 176.984 114.004C177.747 114.004 177.766 113.985 177.461 113.282C176.711 111.547 175.957 109.814 175.202 108.081C174.997 107.61 174.784 107.143 174.576 106.679Z" fill="black"/>
<path d="M35.6696 108.976C35.6696 110.536 35.6229 112.097 35.6827 113.654C35.7426 115.215 36.451 116.465 37.9038 117.122C40.4048 118.254 43.4018 117.072 43.8222 113.985C43.8691 113.64 43.887 113.296 43.8866 112.95C43.883 110.004 43.884 107.059 43.8718 104.113C43.8706 103.84 43.9433 103.737 44.2231 103.743C44.8787 103.758 45.535 103.756 46.1907 103.744C46.4691 103.739 46.5958 103.83 46.5947 104.126C46.5846 107.071 46.6013 110.017 46.5676 112.962C46.5556 114.013 46.4049 115.058 45.9842 116.043C45.2728 117.707 44.0649 118.85 42.3522 119.426C40.6595 119.996 38.9403 120.016 37.2506 119.439C34.8395 118.615 33.5179 116.863 33.1148 114.379C33.0195 113.792 32.9763 113.201 32.9772 112.606C32.9812 109.958 32.9791 107.309 32.9828 104.661C32.984 103.747 32.9886 103.748 33.8772 103.748C34.2361 103.748 34.595 103.747 34.9539 103.747C35.4312 103.748 35.6698 103.993 35.6697 104.484C35.6672 105.746 35.6629 107.008 35.6596 108.271C35.659 108.506 35.6595 108.741 35.6595 108.976C35.6629 108.976 35.6662 108.976 35.6696 108.976Z" fill="black"/>
<path d="M83.7985 108.974C83.7985 110.533 83.7522 112.094 83.8115 113.651C83.871 115.213 84.5782 116.463 86.0307 117.121C88.532 118.255 91.5293 117.073 91.9508 113.988C91.998 113.643 92.0161 113.299 92.0157 112.952C92.012 110.007 92.0129 107.061 92.001 104.116C91.9999 103.846 92.0667 103.737 92.3497 103.743C93.0053 103.758 93.6616 103.756 94.3173 103.744C94.5934 103.74 94.7247 103.825 94.7237 104.123C94.7136 107.069 94.73 110.014 94.6967 112.959C94.6852 113.973 94.5458 114.983 94.1557 115.937C93.4887 117.57 92.35 118.731 90.692 119.348C88.9508 119.995 87.1741 120.037 85.4174 119.45C82.9853 118.638 81.6517 116.881 81.2442 114.381C81.1484 113.794 81.1053 113.204 81.1062 112.608C81.1102 109.972 81.1081 107.336 81.1114 104.7C81.1125 103.748 81.1165 103.748 82.0779 103.748C82.4616 103.748 82.8453 103.747 83.2289 103.748C83.7929 103.749 83.7982 103.75 83.798 104.333C83.7978 105.286 83.7912 106.239 83.7888 107.192C83.7873 107.786 83.7885 108.38 83.7885 108.974C83.7919 108.974 83.7952 108.974 83.7985 108.974Z" fill="black"/>
<path d="M2.69207 108.967C2.69207 110.526 2.64518 112.088 2.70505 113.645C2.76693 115.254 3.50794 116.527 5.019 117.165C7.53595 118.228 10.4455 117.018 10.8482 113.957C10.8887 113.649 10.9095 113.342 10.9091 113.032C10.9056 110.062 10.9063 107.092 10.8953 104.122C10.8944 103.859 10.9464 103.736 11.2371 103.743C11.9051 103.758 12.5737 103.755 13.2418 103.745C13.5128 103.74 13.6173 103.848 13.6165 104.117C13.6081 107.062 13.624 110.008 13.5907 112.953C13.5791 113.979 13.4369 115 13.0381 115.965C12.3642 117.596 11.2166 118.75 9.55715 119.359C7.81382 119.998 6.03619 120.035 4.28195 119.441C1.86889 118.623 0.546129 116.87 0.1388 114.387C0.0425187 113.801 -0.000906651 113.21 1.43358e-05 112.615C0.00412609 109.954 0.00189797 107.293 0.00579879 104.632C0.00709708 103.747 0.0123421 103.747 0.891115 103.747C1.33664 103.747 1.78332 103.767 2.22734 103.741C2.59246 103.72 2.6987 103.87 2.69632 104.215C2.6854 105.799 2.69151 107.383 2.69207 108.967Z" fill="black"/>
<path d="M73.915 112.754C73.915 114.845 73.9154 116.936 73.9146 119.027C73.9144 119.517 73.8952 119.537 73.4219 119.539C72.8528 119.54 72.2837 119.54 71.7146 119.539C71.2324 119.537 71.2198 119.526 71.2197 119.034C71.2185 115.421 71.2189 111.808 71.2182 108.196C71.2181 107.664 71.2158 107.132 71.2126 106.6C71.2093 106.066 71.1716 106.023 70.647 106.021C69.2861 106.017 67.925 106.007 66.5643 106.026C66.1993 106.031 66.0512 105.948 66.0839 105.554C66.1226 105.087 66.1039 104.614 66.0937 104.144C66.0877 103.869 66.1737 103.743 66.4747 103.743C70.5327 103.75 74.5908 103.75 78.6488 103.743C78.9391 103.743 79.051 103.853 79.0442 104.135C79.0324 104.63 79.0276 105.125 79.0329 105.619C79.0361 105.924 78.9029 106.022 78.6022 106.02C77.1919 106.009 75.7813 106.029 74.3711 106.012C74.0074 106.008 73.911 106.132 73.9133 106.482C73.9269 108.573 73.92 110.664 73.92 112.754H73.915Z" fill="black"/>
<path d="M120.527 111.567C120.527 109.08 120.532 106.594 120.521 104.107C120.52 103.826 120.606 103.738 120.879 103.743C121.534 103.757 122.191 103.756 122.846 103.744C123.129 103.739 123.256 103.839 123.244 104.131C123.231 104.452 123.241 104.774 123.241 105.096C123.242 108.931 123.242 112.766 123.244 116.601C123.245 117.229 123.274 117.262 123.921 117.263C126.271 117.269 128.622 117.269 130.972 117.271C131.543 117.271 131.551 117.28 131.551 117.851C131.551 118.26 131.535 118.669 131.556 119.076C131.575 119.432 131.438 119.548 131.083 119.546C129.005 119.533 126.926 119.539 124.848 119.539C123.598 119.539 122.349 119.54 121.099 119.539C120.539 119.539 120.537 119.538 120.537 118.99C120.536 116.516 120.536 114.041 120.536 111.567C120.533 111.567 120.53 111.567 120.527 111.567Z" fill="black"/>
<path d="M184.996 111.595C184.996 109.095 184.999 106.595 184.991 104.095C184.99 103.84 185.059 103.739 185.322 103.744C185.99 103.755 186.659 103.757 187.327 103.743C187.623 103.737 187.717 103.863 187.714 104.142C187.704 105.058 187.706 105.974 187.707 106.89C187.708 110.145 187.71 113.399 187.714 116.654C187.715 117.217 187.751 117.26 188.332 117.262C190.671 117.269 193.01 117.269 195.349 117.273C195.987 117.274 196.014 117.293 195.929 117.923C195.875 118.325 195.956 118.712 195.994 119.104C196.024 119.404 195.946 119.542 195.624 119.542C192.208 119.536 188.793 119.535 185.377 119.543C184.997 119.544 185.004 119.321 185.004 119.058C185.006 116.57 185.006 114.083 185.006 111.595C185.002 111.595 184.999 111.595 184.996 111.595Z" fill="black"/>
<path d="M74.1775 131.674C74.4382 131.204 74.5382 130.756 74.6843 130.328C74.9956 129.415 75.2926 128.497 75.5904 127.579C75.6544 127.382 75.7111 127.214 75.9765 127.211C76.2584 127.208 76.3186 127.383 76.3882 127.596C76.7729 128.771 77.1651 129.944 77.5579 131.117C77.6157 131.289 77.6561 131.473 77.7973 131.625C77.9353 131.544 77.9375 131.398 77.9781 131.28C78.4043 130.04 78.8261 128.799 79.2499 127.558C79.3054 127.395 79.3424 127.234 79.5749 127.213C80.0224 127.173 80.0988 127.255 79.9487 127.676C79.3802 129.272 78.8112 130.868 78.2407 132.463C78.1617 132.684 78.1006 132.915 77.7828 132.913C77.4604 132.91 77.4187 132.673 77.3437 132.45C76.949 131.278 76.5543 130.106 76.1548 128.936C76.121 128.837 76.1301 128.673 76.0022 128.664C75.8475 128.654 75.8364 128.83 75.7995 128.937C75.4009 130.094 75.0099 131.255 74.6162 132.414C74.5427 132.631 74.5265 132.889 74.2056 132.909C73.8765 132.93 73.7948 132.699 73.7098 132.458C73.1421 130.848 72.5716 129.24 72.0062 127.629C71.9625 127.505 71.8043 127.323 72.0114 127.251C72.2185 127.18 72.4881 127.123 72.6427 127.384C72.7172 127.51 72.7557 127.658 72.8044 127.798C73.2268 129.012 73.6477 130.228 74.0702 131.442C74.0896 131.498 74.1197 131.55 74.1775 131.674Z" fill="black"/>
<path d="M144.739 130.046C144.739 129.229 144.749 128.412 144.734 127.596C144.729 127.305 144.829 127.204 145.12 127.21C145.862 127.226 146.605 127.205 147.347 127.219C147.911 127.23 148.42 127.424 148.817 127.831C149.658 128.694 149.366 130.026 148.228 130.571C147.816 130.768 147.807 130.776 148.103 131.14C148.51 131.638 148.864 132.178 149.319 132.637C149.376 132.694 149.476 132.752 149.429 132.85C149.385 132.943 149.276 132.902 149.194 132.911C148.864 132.947 148.617 132.865 148.408 132.561C148.037 132.022 147.61 131.522 147.208 131.004C147.146 130.923 147.085 130.841 146.975 130.84C146.542 130.836 146.109 130.833 145.676 130.837C145.471 130.84 145.497 130.994 145.498 131.133C145.504 131.578 145.5 132.024 145.508 132.469C145.512 132.738 145.457 132.913 145.123 132.919C144.796 132.924 144.73 132.783 144.735 132.496C144.748 131.679 144.739 130.862 144.739 130.046ZM145.522 128.967L145.508 128.968C145.508 129.276 145.509 129.585 145.508 129.893C145.507 130.065 145.563 130.184 145.759 130.183C146.327 130.18 146.899 130.22 147.461 130.165C148.249 130.087 148.594 129.63 148.542 128.853C148.5 128.233 148.043 127.865 147.304 127.862C146.798 127.859 146.292 127.866 145.786 127.86C145.549 127.857 145.448 127.938 145.481 128.191C145.515 128.447 145.51 128.708 145.522 128.967Z" fill="black"/>
<path d="M55.1737 130.026C55.1737 129.222 55.1829 128.418 55.169 127.614C55.1637 127.306 55.2809 127.204 55.5828 127.21C56.3493 127.226 57.1165 127.205 57.883 127.22C58.7191 127.237 59.4603 127.804 59.6589 128.551C59.8783 129.376 59.5442 130.137 58.7465 130.517C58.1455 130.803 58.2896 130.846 58.5994 131.242C58.9798 131.728 59.3844 132.196 59.776 132.674C59.8125 132.718 59.8594 132.782 59.8515 132.829C59.8357 132.923 59.7389 132.901 59.6688 132.909C59.326 132.951 59.0512 132.867 58.8314 132.567C58.4522 132.048 58.037 131.556 57.6467 131.046C57.5295 130.892 57.3951 130.826 57.2051 130.83C56.8838 130.838 56.5615 130.844 56.2407 130.829C55.9586 130.815 55.8475 130.94 55.8914 131.205C55.9672 131.663 55.862 132.118 55.8902 132.574C55.9042 132.801 55.8537 132.923 55.5935 132.916C55.357 132.909 55.1724 132.883 55.1735 132.586C55.1762 131.905 55.1739 131.225 55.1737 130.545C55.1736 130.372 55.1737 130.199 55.1737 130.026ZM55.886 129.032C55.886 129.316 55.8892 129.6 55.8849 129.883C55.882 130.077 55.952 130.187 56.1627 130.185C56.7056 130.181 57.2524 130.224 57.7903 130.172C58.3982 130.114 59.0265 129.807 58.9791 128.987C58.9413 128.334 58.5456 127.9 57.8496 127.869C57.2955 127.844 56.7394 127.867 56.1842 127.861C55.957 127.858 55.8792 127.97 55.8837 128.181C55.8897 128.464 55.8852 128.748 55.886 129.032Z" fill="black"/>
<path d="M98.1311 127.216C99.7599 127.222 101.039 128.472 101.037 130.056C101.036 131.652 99.7124 132.92 98.0566 132.911C96.4482 132.903 95.1963 131.609 95.2099 129.969C95.2225 128.463 96.5522 127.21 98.1311 127.216ZM100.254 130.154C100.253 128.826 99.3661 127.859 98.1495 127.86C96.8486 127.862 95.9652 128.772 95.9664 130.108C95.9675 131.364 96.8639 132.268 98.1105 132.27C99.3451 132.272 100.254 131.374 100.254 130.154Z" fill="black"/>
<path d="M66.0074 132.911C64.366 132.908 63.1112 131.629 63.1239 129.971C63.1354 128.465 64.4647 127.21 66.0428 127.216C67.6709 127.222 68.9532 128.474 68.9513 130.055C68.9494 131.637 67.6333 132.914 66.0074 132.911ZM68.1678 130.17C68.1691 128.835 67.2888 127.861 66.0791 127.861C64.7661 127.86 63.8876 128.751 63.8804 130.091C63.8736 131.364 64.7752 132.272 66.0452 132.27C67.2552 132.268 68.1667 131.367 68.1678 130.17Z" fill="black"/>
<path d="M108.448 129.891C108.72 129.891 108.992 129.894 109.264 129.89C109.476 129.886 109.585 129.971 109.583 130.195C109.579 130.764 109.582 131.333 109.583 131.901C109.583 132.049 109.528 132.165 109.404 132.247C108.191 133.058 106.646 133.18 105.516 132.332C104.614 131.654 104.336 130.725 104.464 129.679C104.604 128.543 105.264 127.751 106.354 127.372C107.316 127.037 108.231 127.209 109.085 127.74C109.227 127.828 109.433 127.912 109.289 128.133C109.153 128.342 108.984 128.487 108.706 128.304C108.265 128.014 107.79 127.839 107.244 127.857C106.026 127.896 105.167 128.817 105.176 130.105C105.185 131.374 106.044 132.254 107.265 132.275C107.749 132.283 108.191 132.16 108.626 131.972C108.844 131.878 108.947 131.731 108.943 131.485C108.925 130.414 109.084 130.545 108.038 130.535C107.864 130.534 107.691 130.532 107.518 130.533C107.305 130.534 107.191 130.418 107.189 130.216C107.186 130.006 107.316 129.902 107.52 129.899C107.829 129.895 108.139 129.898 108.448 129.898V129.891Z" fill="black"/>
<path d="M133.203 130.093C133.203 130.91 133.199 131.726 133.205 132.543C133.207 132.772 133.167 132.916 132.885 132.917C132.618 132.917 132.445 132.848 132.443 132.557C132.438 131.926 132.421 131.295 132.446 130.665C132.458 130.362 132.383 130.23 132.065 130.235C131.249 130.246 130.432 130.246 129.616 130.234C129.327 130.23 129.237 130.359 129.272 130.618C129.362 131.285 129.291 131.951 129.275 132.618C129.27 132.818 129.223 132.922 129.007 132.912C128.811 132.902 128.59 132.947 128.562 132.654C128.555 132.58 128.553 132.506 128.553 132.432C128.549 130.799 128.55 129.166 128.537 127.533C128.535 127.28 128.635 127.204 128.865 127.214C129.087 127.224 129.335 127.173 129.321 127.527C129.3 128.083 129.295 128.639 129.263 129.194C129.245 129.507 129.371 129.603 129.673 129.597C130.465 129.581 131.257 129.593 132.049 129.591C132.468 129.59 132.517 129.544 132.472 129.111C132.421 128.617 132.459 128.122 132.434 127.628C132.419 127.335 132.515 127.21 132.834 127.206C133.177 127.202 133.21 127.373 133.207 127.644C133.197 128.46 133.203 129.277 133.203 130.093Z" fill="black"/>
<path d="M139.138 127.215C139.707 127.215 140.276 127.218 140.845 127.214C141.062 127.212 141.229 127.228 141.228 127.523C141.226 127.821 141.069 127.865 140.826 127.863C139.924 127.857 139.021 127.868 138.118 127.857C137.828 127.854 137.722 127.939 137.761 128.248C137.803 128.577 137.789 128.914 137.781 129.248C137.775 129.504 137.879 129.599 138.133 129.595C138.813 129.585 139.493 129.591 140.174 129.592C140.272 129.592 140.372 129.591 140.47 129.599C140.668 129.615 140.858 129.675 140.859 129.909C140.861 130.164 140.665 130.233 140.449 130.234C139.682 130.238 138.915 130.245 138.149 130.233C137.873 130.229 137.747 130.281 137.774 130.603C137.809 131.033 137.795 131.468 137.771 131.9C137.755 132.185 137.867 132.271 138.134 132.268C139.036 132.26 139.939 132.27 140.842 132.263C141.089 132.261 141.236 132.305 141.23 132.605C141.225 132.898 141.062 132.913 140.844 132.913C139.694 132.909 138.544 132.904 137.394 132.916C137.102 132.919 137.008 132.818 137.01 132.53C137.02 130.885 137.02 129.24 137.01 127.596C137.008 127.305 137.104 127.202 137.395 127.21C137.976 127.227 138.557 127.215 139.138 127.215Z" fill="black"/>
<path d="M113.247 130.051C113.247 129.234 113.256 128.418 113.243 127.602C113.238 127.321 113.322 127.207 113.621 127.21C114.783 127.223 115.946 127.218 117.108 127.214C117.322 127.213 117.462 127.252 117.459 127.516C117.457 127.773 117.353 127.865 117.102 127.863C116.187 127.856 115.272 127.867 114.357 127.858C114.076 127.855 113.951 127.924 113.993 128.241C114.036 128.558 114.025 128.884 114.012 129.204C114.001 129.488 114.101 129.603 114.397 129.596C115.076 129.581 115.757 129.591 116.437 129.592C116.548 129.593 116.66 129.591 116.77 129.607C116.941 129.631 117.089 129.708 117.094 129.903C117.1 130.115 116.953 130.214 116.762 130.227C116.528 130.243 116.292 130.237 116.057 130.238C115.476 130.239 114.895 130.246 114.314 130.235C114.071 130.23 113.993 130.309 114.007 130.559C114.03 130.99 114.031 131.425 114.004 131.856C113.984 132.167 114.086 132.275 114.397 132.27C115.287 132.257 116.177 132.269 117.068 132.263C117.308 132.262 117.469 132.292 117.463 132.599C117.458 132.885 117.307 132.914 117.083 132.913C115.933 132.909 114.783 132.902 113.633 132.917C113.311 132.921 113.237 132.79 113.242 132.499C113.256 131.683 113.247 130.867 113.247 130.051Z" fill="black"/>
<path d="M50.4703 129.897C50.7191 129.933 51.1804 129.725 51.4256 129.982C51.6519 130.22 51.4803 130.669 51.5023 131.024C51.5085 131.123 51.487 131.225 51.5059 131.321C51.6425 132.01 51.2775 132.339 50.6938 132.606C49.1065 133.33 47.3179 132.781 46.624 131.314C45.7249 129.412 47.1202 127.222 49.2224 127.208C49.8828 127.204 50.4619 127.398 51.0003 127.751C51.136 127.841 51.3476 127.925 51.2056 128.148C51.0755 128.352 50.9065 128.465 50.6477 128.302C50.0635 127.934 49.4301 127.747 48.7378 127.898C47.5273 128.162 46.865 129.323 47.1471 130.665C47.389 131.815 48.5258 132.495 49.7727 132.236C49.8332 132.223 49.8932 132.207 49.9529 132.191C50.8389 131.952 51.0382 131.623 50.856 130.73C50.8176 130.542 50.6981 130.535 50.5565 130.535C50.1976 130.534 49.8386 130.531 49.4797 130.533C49.2639 130.534 49.1137 130.46 49.1064 130.221C49.099 129.979 49.2496 129.898 49.4642 129.897C49.7612 129.895 50.0582 129.897 50.4703 129.897Z" fill="black"/>
<path d="M122.457 130.377C122.457 129.673 122.445 128.968 122.462 128.264C122.469 127.964 122.385 127.836 122.067 127.855C121.698 127.878 121.326 127.855 120.955 127.861C120.749 127.864 120.619 127.794 120.612 127.572C120.604 127.344 120.712 127.221 120.942 127.221C122.203 127.22 123.464 127.218 124.725 127.223C124.924 127.224 125.112 127.298 125.113 127.532C125.114 127.788 124.918 127.853 124.702 127.857C124.343 127.862 123.984 127.874 123.627 127.856C123.332 127.842 123.24 127.959 123.242 128.246C123.252 129.655 123.237 131.065 123.252 132.474C123.256 132.821 123.133 132.93 122.799 132.917C122.544 132.907 122.45 132.82 122.454 132.566C122.464 131.836 122.458 131.107 122.458 130.377L122.457 130.377Z" fill="black"/>
<path d="M89.7764 130.359C89.7764 129.654 89.7661 128.949 89.7814 128.245C89.7876 127.962 89.71 127.838 89.4059 127.855C89.024 127.877 88.6397 127.856 88.2565 127.861C88.0413 127.863 87.9327 127.769 87.9316 127.553C87.9306 127.345 88.0304 127.223 88.2433 127.223C89.5166 127.221 90.7899 127.219 92.0632 127.225C92.2634 127.226 92.4441 127.314 92.4336 127.55C92.4234 127.781 92.2435 127.852 92.0406 127.856C91.6822 127.862 91.3227 127.876 90.9653 127.856C90.6541 127.839 90.5585 127.96 90.561 128.264C90.5726 129.661 90.5663 131.058 90.5649 132.455C90.5645 132.884 90.5167 132.917 90.1007 132.914C89.8617 132.912 89.7724 132.821 89.7749 132.584C89.783 131.843 89.7779 131.101 89.7779 130.359H89.7764Z" fill="black"/>
</svg>
