<svg width="16" height="20" viewBox="0 0 16 20" fill="none" xmlns="http://www.w3.org/2000/svg">
<path fill-rule="evenodd" clip-rule="evenodd" d="M2.23695 6.38096C2.30411 5.36205 2.77647 4.4058 3.55787 3.7069C4.33928 3.00801 5.37098 2.61899 6.44295 2.61906H6.99995V1.90477C6.99995 1.65219 7.10531 1.40994 7.29284 1.23134C7.48038 1.05273 7.73473 0.952393 7.99995 0.952393C8.26517 0.952393 8.51952 1.05273 8.70706 1.23134C8.89459 1.40994 8.99995 1.65219 8.99995 1.90477V2.61906H9.55695C10.6289 2.61899 11.6606 3.00801 12.442 3.7069C13.2234 4.4058 13.6958 5.36205 13.7629 6.38096L13.9839 9.74668C14.0682 11.03 14.5206 12.2666 15.2919 13.3219C15.4513 13.5401 15.5487 13.7938 15.5746 14.0584C15.6005 14.323 15.5541 14.5895 15.4398 14.832C15.3256 15.0744 15.1474 15.2846 14.9226 15.4421C14.6978 15.5995 14.434 15.6989 14.1569 15.7305L10.7499 16.1191V17.1429C10.7499 17.8375 10.4602 18.5037 9.94449 18.9948C9.42877 19.486 8.7293 19.7619 7.99995 19.7619C7.2706 19.7619 6.57113 19.486 6.05541 18.9948C5.53968 18.5037 5.24995 17.8375 5.24995 17.1429V16.1191L1.84295 15.7295C1.56604 15.6978 1.30246 15.5985 1.0778 15.4411C0.853133 15.2837 0.675034 15.0736 0.560802 14.8313C0.446569 14.589 0.400087 14.3227 0.425871 14.0582C0.451654 13.7937 0.548828 13.5401 0.70795 13.3219C1.47925 12.2666 1.93168 11.03 2.01595 9.74668L2.23695 6.38096ZM6.44295 4.04763C5.75252 4.04755 5.08802 4.29808 4.58473 4.74821C4.08144 5.19834 3.7772 5.81423 3.73395 6.47049L3.51395 9.8362C3.41229 11.38 2.86787 12.8676 1.93995 14.1372C1.92842 14.1529 1.92137 14.1713 1.91949 14.1904C1.9176 14.2096 1.92095 14.2288 1.9292 14.2464C1.93746 14.2639 1.95034 14.2791 1.96659 14.2905C1.98284 14.3019 2.00191 14.3091 2.02195 14.3114L5.75895 14.7391C7.24795 14.9086 8.75195 14.9086 10.2409 14.7391L13.978 14.3114C13.998 14.3091 14.0171 14.3019 14.0333 14.2905C14.0496 14.2791 14.0624 14.2639 14.0707 14.2464C14.0789 14.2288 14.0823 14.2096 14.0804 14.1904C14.0785 14.1713 14.0715 14.1529 14.0599 14.1372C13.1323 12.8676 12.5883 11.3799 12.4869 9.8362L12.266 6.47049C12.2227 5.81423 11.9185 5.19834 11.4152 4.74821C10.9119 4.29808 10.2474 4.04755 9.55695 4.04763H6.44295ZM7.99995 18.3333C7.30995 18.3333 6.74995 17.8 6.74995 17.1429V16.4286H9.24995V17.1429C9.24995 17.8 8.68995 18.3333 7.99995 18.3333Z" fill="#222222"/>
</svg>
