<svg width="21" height="20" viewBox="0 0 21 20" fill="none" xmlns="http://www.w3.org/2000/svg">
<g clip-path="url(#clip0_83_3515)">
<mask id="mask0_83_3515" style="mask-type:luminance" maskUnits="userSpaceOnUse" x="0" y="0" width="21" height="20">
<path d="M10.4999 19.2429C11.7746 19.2444 13.0371 19.0061 14.2148 18.5415C15.3924 18.0769 16.4621 17.3952 17.3623 16.5356C18.2648 15.6783 18.9806 14.6596 19.4684 13.538C19.9562 12.4164 20.2065 11.2141 20.2049 10C20.2065 8.78603 19.9562 7.58368 19.4684 6.46208C18.9806 5.34049 18.2648 4.32176 17.3623 3.46443C16.4621 2.60486 15.3924 1.92319 14.2148 1.4586C13.0371 0.993998 11.7746 0.755637 10.4999 0.75721C9.22519 0.755662 7.96272 0.994035 6.78504 1.45863C5.60737 1.92323 4.5377 2.60488 3.63752 3.46443C2.73499 4.32176 2.01925 5.34049 1.53142 6.46208C1.0436 7.58368 0.793305 8.78603 0.79493 10C0.793278 11.2141 1.04356 12.4164 1.53138 13.538C2.01921 14.6596 2.73497 15.6783 3.63752 16.5356C4.5377 17.3952 5.60737 18.0768 6.78504 18.5414C7.96272 19.006 9.22519 19.2444 10.4999 19.2429Z" fill="#555555" stroke="white" stroke-width="1.5" stroke-linejoin="round"/>
<path d="M6.61816 10L9.52965 12.7729L15.3526 7.22717" stroke="white" stroke-width="1.5" stroke-linecap="round" stroke-linejoin="round"/>
</mask>
<g mask="url(#mask0_83_3515)">
<path d="M-1.14648 -1.09131H22.1454V21.0915H-1.14648V-1.09131Z" fill="#2EB200"/>
</g>
</g>
<defs>
<clipPath id="clip0_83_3515">
<rect width="21" height="20" fill="white"/>
</clipPath>
</defs>
</svg>
