<svg width="20" height="20" viewBox="0 0 20 20" fill="none" xmlns="http://www.w3.org/2000/svg">
<path d="M5.22465 9.02342C5.22453 9.01811 5.22465 9.0287 5.22465 9.02342V9.02342ZM14.834 9.02342C14.7951 10.9381 13.6976 12.7462 11.6602 14.2647C10.6999 14.9805 9.3587 14.9805 8.39843 14.2647C6.36109 12.7462 5.26351 10.9381 5.22465 9.02342C5.23219 6.50507 8.30273 5.25949 10.0293 7.07433C11.7569 5.2587 14.8269 6.50647 14.834 9.02342ZM13.2715 8.99354C13.1887 7.36061 10.8716 7.37972 10.8106 9.02342C10.8106 9.45491 10.4608 9.80467 10.0293 9.80467C9.59784 9.80467 9.24808 9.45491 9.24808 9.02342C9.18694 7.37897 6.86925 7.36155 6.78714 8.99354C6.82757 10.7767 8.19292 12.1627 9.33222 13.0119C9.74261 13.3179 10.316 13.3179 10.7264 13.0119C11.8657 12.1627 13.2311 10.7767 13.2715 8.99354ZM14.834 9.02342C14.834 9.0287 14.8341 9.01811 14.834 9.02342V9.02342ZM19.9902 9.99998C19.9813 18.8764 9.20136 23.3413 2.91918 17.0709C-0.959754 13.3487 -0.960379 6.65108 2.91934 2.9289C9.2021 -3.34136 19.9818 1.12406 19.9902 9.99998ZM18.4277 9.99998C18.4277 5.34753 14.6427 1.5625 9.99026 1.5625C-1.20319 2.02598 -1.19995 17.9757 9.99034 18.4375C14.6427 18.4375 18.4277 14.6524 18.4277 9.99998Z" fill="#222222"/>
</svg>
