<svg width="18" height="20" viewBox="0 0 18 20" fill="none" xmlns="http://www.w3.org/2000/svg">
<path d="M14.9194 2.45508C13.3441 0.872921 11.2452 0.00157482 9.00962 0.00157482H8.99997C4.49809 -0.0905673 0.548559 3.87408 0.641248 8.37432C0.759091 11.552 3.81611 15.5877 6.19673 18.6881C6.89586 19.5233 7.91454 20 9.00892 20C10.1417 20 11.1934 19.4896 11.8943 18.5996C13.6604 16.405 17.4738 11.1265 17.3587 8.37424C17.3588 6.13701 16.4925 4.03489 14.9194 2.45508ZM10.667 17.6329C9.85968 18.6978 8.1614 18.6997 7.35376 17.6347C4.12574 13.5243 2.20356 10.1012 2.20356 8.37428C2.20356 4.61907 5.25242 1.56401 8.99997 1.56401H9.00962C12.7519 1.56401 15.7964 4.61911 15.7964 8.37428C15.7964 10.12 13.9268 13.4946 10.667 17.6329ZM9.04388 11.6803C7.21318 11.6803 5.72379 10.191 5.72379 8.36026C5.90616 3.95572 12.1823 3.95701 12.364 8.3603C12.364 10.191 10.8746 11.6803 9.04388 11.6803ZM9.04388 6.60257C8.07469 6.60257 7.28618 7.39107 7.28618 8.36026C7.38274 10.6921 10.7054 10.6914 10.8016 8.36026C10.8016 7.39107 10.0131 6.60257 9.04388 6.60257Z" fill="#222222"/>
</svg>
