<svg width="18" height="20" viewBox="0 0 18 20" fill="none" xmlns="http://www.w3.org/2000/svg">
<path d="M0.96918 19.961C0.538537 19.961 0.189453 19.6119 0.189453 19.1813C0.189453 15.2688 3.37249 12.0858 7.28497 12.0858H8.45456C9.31355 12.0858 10.1535 12.2378 10.9512 12.5377C11.3542 12.6892 11.5582 13.1388 11.4067 13.5419C11.2551 13.945 10.8056 14.149 10.4024 13.9974C9.78084 13.7637 9.12544 13.6452 8.45456 13.6452H7.28497C4.23238 13.6452 1.74891 16.1287 1.74891 19.1813C1.74891 19.6119 1.39982 19.961 0.96918 19.961ZM13.055 5.26316C13.055 2.36105 10.6939 0 7.79179 0C4.88969 0 2.52863 2.36105 2.52863 5.26316C2.52863 8.16526 4.88969 10.5263 7.79179 10.5263C10.6939 10.5263 13.055 8.16526 13.055 5.26316ZM11.4955 5.26316C11.4955 7.30538 9.83401 8.96686 7.79179 8.96686C5.74957 8.96686 4.08809 7.30538 4.08809 5.26316C4.08809 3.22094 5.74957 1.55945 7.79179 1.55945C9.83401 1.55945 11.4955 3.22094 11.4955 5.26316ZM17.8113 17.6218V15.5625C17.8113 14.2473 16.7414 13.1774 15.4263 13.1774H13.3668C12.9362 13.1774 12.5871 13.5265 12.5871 13.9571C12.5871 14.3878 12.9362 14.7368 13.3668 14.7368H15.4263C15.8815 14.7368 16.2518 15.1072 16.2518 15.5625V17.6218C16.2518 18.0525 16.6009 18.4016 17.0316 18.4016C17.4622 18.4016 17.8113 18.0525 17.8113 17.6218ZM15.1 17.1463C15.3974 16.8349 15.386 16.3413 15.0746 16.0439C14.7631 15.7466 14.2696 15.7579 13.9721 16.0693C12.5331 17.5763 10.5127 18.4405 8.42902 18.4405H8.0647C7.63405 18.4405 7.28497 18.7896 7.28497 19.2203C7.28497 19.6509 7.63405 20 8.0647 20H8.42902C10.9367 20 13.3681 18.9598 15.1 17.1463Z" fill="#222222"/>
</svg>
