<svg width="19" height="18" viewBox="0 0 19 18" fill="none" xmlns="http://www.w3.org/2000/svg">
<path d="M14.8333 4.83333V2.33333C14.8333 2.11232 14.7455 1.90036 14.5893 1.74408C14.433 1.5878 14.221 1.5 14 1.5H3.16667C2.72464 1.5 2.30072 1.67559 1.98816 1.98816C1.67559 2.30072 1.5 2.72464 1.5 3.16667C1.5 3.60869 1.67559 4.03262 1.98816 4.34518C2.30072 4.65774 2.72464 4.83333 3.16667 4.83333H15.6667C15.8877 4.83333 16.0996 4.92113 16.2559 5.07741C16.4122 5.23369 16.5 5.44565 16.5 5.66667V9M16.5 9H14C13.558 9 13.134 9.17559 12.8215 9.48815C12.5089 9.80072 12.3333 10.2246 12.3333 10.6667C12.3333 11.1087 12.5089 11.5326 12.8215 11.8452C13.134 12.1577 13.558 12.3333 14 12.3333H16.5C16.721 12.3333 16.933 12.2455 17.0893 12.0893C17.2455 11.933 17.3333 11.721 17.3333 11.5V9.83333C17.3333 9.61232 17.2455 9.40036 17.0893 9.24408C16.933 9.0878 16.721 9 16.5 9Z" stroke="#222222" stroke-width="1.5" stroke-linecap="round" stroke-linejoin="round"/>
<path d="M1.5 3.16675V14.8334C1.5 15.2754 1.67559 15.6994 1.98816 16.0119C2.30072 16.3245 2.72464 16.5001 3.16667 16.5001H15.6667C15.8877 16.5001 16.0996 16.4123 16.2559 16.256C16.4122 16.0997 16.5 15.8878 16.5 15.6667V12.3334" stroke="#222222" stroke-width="1.5" stroke-linecap="round" stroke-linejoin="round"/>
</svg>
