<svg width="10" height="10" viewBox="0 0 10 10" fill="none" xmlns="http://www.w3.org/2000/svg">
<path d="M9.97385 3.83558C9.90801 3.63309 9.72841 3.48974 9.51677 3.47059L6.63006 3.20851L5.48922 0.537572C5.40499 0.341341 5.21333 0.214691 5.00001 0.214691C4.78669 0.214691 4.59496 0.341341 4.51127 0.537572L3.37042 3.20851L0.48326 3.47059C0.271617 3.49012 0.0923996 3.63348 0.0261753 3.83558C-0.0396675 4.03807 0.0211398 4.26016 0.181207 4.40055L2.36333 6.31395L1.71993 9.14771C1.67286 9.35607 1.75373 9.57152 1.92661 9.6965C2.01954 9.76402 2.12872 9.79774 2.23828 9.79774C2.33243 9.79774 2.42665 9.77271 2.51081 9.72236L5.00001 8.23399L7.48876 9.72236C7.67134 9.83146 7.90091 9.82147 8.07341 9.6965C8.2463 9.57152 8.32717 9.35607 8.2801 9.14771L7.6367 6.31395L9.81882 4.40055C9.97881 4.26016 10.0397 4.03853 9.97385 3.83558Z" fill="#F5C34B"/>
</svg>
