<svg width="10" height="10" viewBox="0 0 10 10" fill="none" xmlns="http://www.w3.org/2000/svg">
<path d="M9.4718 3.96759L9.47165 3.96757L6.58494 3.7055L6.28818 3.67856L6.17114 3.40453L5.03065 0.734409C5.03063 0.734362 5.03061 0.734315 5.03059 0.734268C5.02476 0.720838 5.01307 0.713723 5.00001 0.713723C4.98662 0.713723 4.97554 0.721051 4.97029 0.733353L4.97019 0.733592L3.82934 3.40453L3.7123 3.67856L3.41554 3.7055L0.529118 3.96751C0.529072 3.96751 0.529026 3.96751 0.52898 3.96752C0.516448 3.96873 0.505206 3.97699 0.50058 3.99043C0.496573 4.00344 0.50063 4.0169 0.510216 4.02533L9.4718 3.96759ZM9.4718 3.96759C9.48411 3.9687 9.49489 3.97681 9.49918 3.98958C9.50362 4.00327 9.49955 4.0167 9.48981 4.02533C9.48977 4.02537 9.48973 4.02541 9.48969 4.02544L7.30769 5.93874L7.08426 6.13466L7.15005 6.42444L7.79333 9.25768C7.79334 9.25773 7.79336 9.25778 7.79337 9.25783C7.79659 9.27235 7.79101 9.28488 7.78107 9.29206L7.78064 9.29237C7.76985 9.30019 7.75611 9.30078 7.74475 9.29399L5.25614 7.80571L5.00004 7.65255L4.74392 7.80569L2.25471 9.29405L2.25457 9.29414C2.24926 9.29731 2.24384 9.29871 2.23828 9.29871C2.23141 9.29871 2.22546 9.29678 2.21995 9.29278L2.21896 9.29206C2.20901 9.28487 2.20342 9.27231 2.20667 9.25777C2.20668 9.25774 2.20669 9.25771 2.20669 9.25768L2.84997 6.42444L2.91577 6.13466L2.69234 5.93874L0.510252 4.02536L9.4718 3.96759Z" fill="white" stroke="#041E42" stroke-width="0.998064"/>
</svg>
